<svg xmlns="http://www.w3.org/2000/svg" viewBox="0 0 512 512">
    <path fill="#43d3e8" d="M312 208h16v240h-16zM376 176h16v240h-16z"/>
    <path fill="#43d3e8" d="M452.066129 222.916245L260.0349814 334.8806958l-8.0592-13.8224L444.006929 209.093845zM452.089325 302.906945L260.0581774 414.8713958l-8.0592-13.8224L444.030125 289.084545z"/>
    <path fill="#403e3e" d="M246.4324873 233.0916529l-8.0549034 13.8264641-164.8080648-96.0124752 8.0549034-13.8264641zM438.4414287 150.9341875l-164.8410246 95.933166-8.048-13.8288 164.8410246-95.933166zM438.4343839 121.100017l-8.0549034 13.8264641-164.8080648-96.0124752 8.0549034-13.8264641zM246.4279119 38.9185153L81.6284881 134.9068847l-8.0528-13.8256 164.7994238-95.9883694zM438.4483996 390.9224586l-164.8410246 95.933166-8.048-13.8288 164.8410246-95.933166zM440 152h16v208h-16zM246.4321345 473.1028113l-8.0549034 13.8264641-164.8080648-96.0124752 8.0549034-13.8264641zM56 152h16v208H56zM248 264h16v208h-16zM248 104h16v16h-16zM248 72h16v16h-16zM248 152h16v16h-16zM248 184h16v16h-16zM160 128h16v16h-16zM128 128h16v16h-16zM192 128h16v16h-16zM224 128h16v16h-16zM272 128h16v16h-16zM304 128h16v16h-16zM336 128h16v16h-16zM368 128h16v16h-16z"/>
    <g>
        <path fill="#f96232" d="M256 48c-13.232 0-24-10.768-24-24s10.768-24 24-24 24 10.768 24 24-10.768 24-24 24zm0-32c-4.408 0-8 3.592-8 8s3.592 8 8 8c4.408 0 8-3.592 8-8s-3.592-8-8-8zM256 512c-13.232 0-24-10.768-24-24s10.768-24 24-24 24 10.768 24 24-10.768 24-24 24zm0-32c-4.408 0-8 3.584-8 8s3.592 8 8 8c4.408 0 8-3.584 8-8s-3.592-8-8-8zM64 400c-13.232 0-24-10.768-24-24s10.768-24 24-24 24 10.768 24 24-10.768 24-24 24zm0-32c-4.408 0-8 3.584-8 8s3.592 8 8 8 8-3.584 8-8-3.592-8-8-8zM64 160c-13.232 0-24-10.768-24-24s10.768-24 24-24 24 10.768 24 24-10.768 24-24 24zm0-32c-4.408 0-8 3.592-8 8s3.592 8 8 8 8-3.592 8-8-3.592-8-8-8zM256 272c-13.232 0-24-10.768-24-24s10.768-24 24-24 24 10.768 24 24-10.768 24-24 24zm0-32c-4.408 0-8 3.592-8 8s3.592 8 8 8c4.408 0 8-3.592 8-8s-3.592-8-8-8zM448 160c-13.232 0-24-10.768-24-24s10.768-24 24-24 24 10.768 24 24-10.768 24-24 24zm0-32c-4.416 0-8 3.592-8 8s3.584 8 8 8 8-3.592 8-8-3.584-8-8-8zM448 400c-13.232 0-24-10.768-24-24s10.768-24 24-24 24 10.768 24 24-10.768 24-24 24zm0-32c-4.416 0-8 3.584-8 8s3.584 8 8 8 8-3.584 8-8-3.584-8-8-8z"/>
    </g>
    <path fill="#43d3e8" d="M232 437.68l-144-81V186.32l144 81v170.36zm-128-90.36l112 63V276.68l-112-63v133.64z"/>
</svg>
