<svg xmlns="http://www.w3.org/2000/svg" style="isolation:isolate" viewBox="0 0 235 124">
  <defs>
    <clipPath id="_clipPath_XJXtKAXdw9h15tzcMOo2pDWrPlkp1tJM">
      <path d="M0 0h235v124H0z"/>
    </clipPath>
  </defs>
  <g clip-path="url(#_clipPath_XJXtKAXdw9h15tzcMOo2pDWrPlkp1tJM)">
    <path fill="rgb(74,210,240)" d="M2.556 41.41c.002-1.167.474-2.224 1.235-2.99.761-.767 1.812-1.242 2.972-1.244l14.682 4.19 14.697-4.244c1.16-.002 2.209.469 2.968 1.232.758.764 1.226 1.819 1.224 2.986l-4.217 14.791 4.163 14.776c-.002 1.166-.474 2.224-1.236 2.99-.761.766-1.811 1.241-2.971 1.244l-14.682-4.19-14.698 4.244c-1.159.002-2.209-.469-2.967-1.232-.758-.764-1.227-1.819-1.225-2.987l4.218-14.79L2.556 41.41z"/>
    <path fill="rgb(208,244,0)" d="M31.852 5.486c.538-1.395 1.588-2.443 2.851-3.009 1.262-.568 2.738-.653 4.126-.123l15.638 11.754 19.53 1.672c1.389.53 2.427 1.575 2.984 2.837.557 1.261.632 2.739.094 4.134L65.238 38.508l-1.804 19.586c-.539 1.395-1.589 2.443-2.851 3.01-1.263.567-2.738.653-4.126.123L40.818 49.473l-19.53-1.672c-1.388-.53-2.427-1.575-2.984-2.837-.556-1.261-.631-2.739-.093-4.135l11.836-15.756 1.805-19.587z"/>
    <path fill="rgb(51,148,206)" d="M32.851 84.441c-.242-.635-.206-1.31.048-1.886.254-.576.727-1.054 1.358-1.298l8.868-.786 7.114-5.382c.631-.244 1.301-.206 1.874.051.572.257 1.047.734 1.29 1.369l.795 8.934 5.354 7.173c.243.636.207 1.309-.047 1.886-.254.576-.727 1.054-1.358 1.298l-8.868.787-7.114 5.382c-.631.243-1.301.206-1.873-.051-.573-.257-1.048-.734-1.291-1.369l-.795-8.933-5.355-7.175z"/>
    <path fill="rgb(107,179,64)" d="M18.449 40.511l2.996.855 14.697-4.244c1.16-.002 2.209.469 2.968 1.232.758.764 1.226 1.819 1.224 2.986l-2.252 7.898L21.288 47.8c-1.388-.53-2.427-1.576-2.984-2.837-.556-1.261-.631-2.739-.093-4.134-.001 0 .238-.318.238-.318z"/>
    <path fill="rgb(32,45,121)" d="M88.27 58.734l-.04 8.584h11.12c1.934 0 3.502 1.568 3.502 3.502 0 1.935-1.568 3.503-3.502 3.503H88.23v43.786c0 2.149-1.743 3.891-3.891 3.891-2.149 0-3.892-1.742-3.892-3.891V74.323h-6.743c-1.934 0-3.502-1.568-3.502-3.503 0-1.934 1.568-3.502 3.502-3.502h6.647v-7.669c0-9.437 5.933-14.203 14.884-14.203h4.115c1.934 0 3.502 1.569 3.502 3.503 0 1.934-1.568 3.502-3.502 3.502h-4.115c-5.287 0-6.965 1.898-6.965 6.283zm82.287 0l-.04 8.584h11.12c1.934 0 3.502 1.568 3.502 3.502 0 1.935-1.568 3.503-3.502 3.503h-11.12v43.786c0 2.149-1.743 3.891-3.892 3.891s-3.891-1.742-3.891-3.891V74.323h-6.743c-1.935 0-3.503-1.568-3.503-3.503 0-1.934 1.568-3.502 3.503-3.502h6.646v-7.669c0-9.437 5.933-14.203 14.884-14.203h4.116c1.934 0 3.502 1.569 3.502 3.503 0 1.934-1.568 3.502-3.502 3.502h-4.116c-5.285 0-6.964 1.898-6.964 6.283zm22.647 31.394h31.856c-1.318-10.699-7.359-15.335-14.859-15.335-9.355 0-15.446 5.822-16.997 15.335zm17.135 24.496c8.442 0 12.067-4.488 13.439-6.258 0 0 1.683-2.203 2.618-2.478.854-.248 1.8-.176 2.647.274 1.537.817 2.224 2.605 1.71 4.205-.222.854-.667 1.934-1.404 3.106-2.53 3.825-8.148 8.476-19.148 8.476-15.034 0-24.666-9.673-24.666-26.331 0-14.439 7.592-28.103 24.666-28.103 12.944 0 21.28 9.12 22.298 23.861 0 5.543-2.307 5.757-8.534 5.757h-31.1c.711 15.764 11.631 17.491 17.474 17.491zM107.197 83.098c0-8.54 7.589-15.273 19.789-15.273l.292.001c10.493-.003 15.825 4.588 18.225 8.363.7 1.157 1.122 2.223 1.333 3.066.488 1.579-.165 3.344-1.623 4.151-.804.444-1.703.515-2.512.271-.888-.272-2.485-2.446-2.485-2.446-.941-1.263-3.002-3.929-7.097-5.31-1.773-.562-3.769-.864-6.133-.864-7.589 0-12.104 3.104-12.104 7.849 0 3.401 2.402 6.148 6.533 7.012l13.062 2.785c7.11 1.537 13.354 5.212 13.354 13.642 0 8.94-7.781 15.598-20.461 15.598l-.554.005c-11 0-16.619-4.651-19.148-8.476-.738-1.172-1.182-2.252-1.404-3.106-.515-1.6.173-3.388 1.71-4.205.846-.45 1.794-.522 2.647-.274.935.275 2.618 2.478 2.618 2.478.999 1.288 3.191 4.016 7.564 5.405 1.928.612 4.125.93 6.567.93 8.453 0 12.68-3.371 12.68-8.068 0-3.217-2.402-5.956-6.341-6.82l-13.448-2.785c-7.109-1.442-13.064-5.708-13.064-13.929z"/>
  </g>
</svg>