<svg xmlns="http://www.w3.org/2000/svg" style="isolation:isolate" viewBox="0 0 540 124">
  <defs>
    <clipPath id="_clipPath_Hg4olIdUvyHVdahb99RoKWZdG4iUUhKV">
      <path d="M0 0h540v124H0z"/>
    </clipPath>
  </defs>
  <g clip-path="url(#_clipPath_Hg4olIdUvyHVdahb99RoKWZdG4iUUhKV)">
    <path fill="rgb(123,121,121)" d="M416.569 97.983q-7.461 0-13.416-2.378-5.956-2.378-10.21-7.566-4.254-5.188-6.544-13.331-2.291-8.142-2.291-19.816V2h15.184v54.189q0 7.638 1.243 12.898 1.243 5.261 3.534 8.432 2.29 3.17 5.432 4.54 3.141 1.369 7.068 1.369 3.927 0 7.199-1.369 3.272-1.37 5.628-4.54 2.356-3.171 3.665-8.432 1.309-5.26 1.309-12.898V2h14.529v52.892q0 11.674-2.225 19.816-2.225 8.143-6.48 13.331-4.253 5.188-10.209 7.566-5.955 2.378-13.416 2.378zm68.848-1.038h-15.183V2.691h15.183v42.803h.394l30.497-42.803h16.885l-26.309 36.751 30.759 57.503h-16.754l-23.168-44.388-12.304 16.861v27.527z"/>
    <path fill="rgb(245,130,33)" fill-rule="evenodd" d="M48.128 98.064q-10.171 0-18.594-3.09-8.423-3.092-14.463-8.944-6.039-5.853-9.377-14.138-3.337-8.286-3.337-18.807 0-10.39 3.337-18.61 3.338-8.22 9.377-13.875 6.04-5.655 14.463-8.68 8.423-3.025 18.594-3.025 10.171 0 18.594 3.025 8.424 3.025 14.542 8.68 6.119 5.655 9.456 13.875 3.338 8.22 3.338 18.61 0 10.521-3.338 18.807-3.337 8.285-9.456 14.138-6.118 5.852-14.542 8.944-8.423 3.09-18.594 3.09zm0-13.283q6.198 0 11.125-2.236t8.423-6.379q3.496-4.143 5.404-9.995 1.907-5.853 1.907-13.086 0-14.467-7.231-22.687t-19.628-8.22q-12.396 0-19.628 8.22-7.231 8.22-7.231 22.687 0 7.233 1.907 13.086 1.908 5.852 5.404 9.995 3.497 4.143 8.423 6.379 4.927 2.236 11.125 2.236zM131.565 122h-18.276V31.91h15.097l1.272 6.839h.636q4.926-3.419 10.966-5.918 6.039-2.498 12.555-2.498 7.311 0 12.952 2.301 5.642 2.301 9.615 6.641 3.974 4.34 6.04 10.39 2.066 6.05 2.066 13.547 0 8.285-2.782 14.795-2.78 6.51-7.389 10.916-4.609 4.406-10.649 6.773-6.039 2.368-12.555 2.368-5.085 0-10.171-1.842-5.086-1.841-9.854-5.26l.477 10.784V122zm15.734-36.43q7.787 0 13.032-5.59 5.245-5.589 5.245-16.637 0-9.732-3.974-15.124-3.973-5.392-12.873-5.392-8.264 0-17.164 7.233v30.117q4.291 3.025 8.264 4.209 3.973 1.184 7.47 1.184zm88.999 12.494q-8.105 0-15.098-2.302-6.993-2.301-12.237-6.641-5.245-4.34-8.185-10.588-2.94-6.246-2.94-14.269 0-7.891 3.019-14.204 3.02-6.313 8.027-10.653 5.006-4.34 11.521-6.707 6.517-2.367 13.35-2.367 7.947 0 13.986 2.235 6.039 2.236 10.092 6.313 4.053 4.077 6.119 9.732 2.066 5.655 2.066 12.363 0 2.236-.238 4.208-.239 1.973-.557 3.157h-49.585q1.271 8.68 7.39 13.349 6.118 4.669 15.654 4.669 5.086 0 9.456-1.249 4.371-1.25 8.662-3.485l6.198 9.469q-5.563 3.025-12.396 4.997-6.834 1.973-14.304 1.973zm-20.819-39.981h34.646q0-7.497-3.894-11.771-3.893-4.274-11.999-4.274-6.992 0-12.237 4.076-5.245 4.078-6.516 11.969zm86.297 38.403H283.5V31.91h15.098l1.272 8.68h.635q5.244-4.208 11.363-7.233 6.119-3.024 14.224-3.024 12.555 0 18.277 6.641 5.721 6.641 5.721 19.004v40.508h-18.276V57.951q0-8.023-2.861-11.311-2.861-3.287-9.377-3.287-5.085 0-8.979 2.038-3.894 2.038-8.821 5.984v45.111z"/>
  </g>
</svg>