<svg xmlns="http://www.w3.org/2000/svg" style="isolation:isolate" viewBox="0 0 436 124">
  <defs>
    <clipPath id="_clipPath_Q4lBanR9lXoOSMfcWyH17tQhbTgIkDie">
      <path d="M0 0h436v124H0z"/>
    </clipPath>
  </defs>
  <g clip-path="url(#_clipPath_Q4lBanR9lXoOSMfcWyH17tQhbTgIkDie)">
    <path fill="rgb(97,147,192)" d="M228.654 111.345c0 5.884-4.771 10.653-10.652 10.653-5.885 0-10.654-4.769-10.654-10.653 0-5.882 4.769-10.655 10.654-10.655 5.881 0 10.652 4.773 10.652 10.655zm53.583 0c0 5.884-4.77 10.655-10.654 10.655-5.881 0-10.652-4.771-10.652-10.655 0-5.885 4.771-10.655 10.652-10.655 5.884 0 10.654 4.77 10.654 10.655zm-107.168 0c0 5.884-4.771 10.653-10.654 10.653s-10.652-4.769-10.652-10.653c0-5.882 4.769-10.655 10.652-10.655 5.883 0 10.654 4.773 10.654 10.655z"/>
    <path fill="rgb(23,23,23)" d="M64.007 39.338v-.208c0-13.948-10.155-25.54-24.413-25.54-14.26 0-24.208 11.387-24.208 25.338v.202c0 13.953 10.154 25.44 24.411 25.44 14.259 0 24.21-11.284 24.21-25.232zm-61.853 0v-.208C2.154 18.926 17.744 2 39.797 2c22.056 0 37.44 16.721 37.44 36.928v.202c0 20.21-15.591 37.134-37.643 37.134-22.054 0-37.44-16.721-37.44-36.926zm111.291 1.231c9.54 0 15.49-5.334 15.49-12.823v-.206c0-8.411-6.052-12.82-15.49-12.82H98.778v25.849h14.667zM86.161 3.231h28.311c16.82 0 27.284 9.54 27.284 24.003v.205c0 16.102-12.923 24.514-28.721 24.514H98.778v23.082H86.161V3.231zm64.517 41.439V3.333h12.614v40.824c0 13.335 6.873 20.413 18.156 20.413 11.182 0 18.052-6.67 18.052-19.9V3.333h12.618v40.72c0 21.44-12.106 32.211-30.875 32.211-18.668 0-30.565-10.771-30.565-31.594zm70.407 19.9l7.592-9.027c6.87 5.949 13.846 9.334 22.668 9.334 7.796 0 12.72-3.692 12.72-9.026v-.204c0-5.129-2.874-7.9-16.208-10.977-15.283-3.691-23.9-8.204-23.9-21.436v-.206c0-12.31 10.257-20.823 24.516-20.823 10.463 0 18.77 3.179 26.053 9.027l-6.768 9.538c-6.463-4.82-12.924-7.383-19.491-7.383-7.386 0-11.694 3.793-11.694 8.513v.205c0 5.539 3.283 8 17.133 11.284 15.18 3.691 22.974 9.128 22.974 21.028v.203c0 13.439-10.563 21.439-25.641 21.439-10.977 0-21.338-3.795-29.954-11.489z"/>
    <path fill="rgb(97,147,192)" d="M304.342 3.743h13.95l21.642 55.186 21.54-55.186h13.644l-29.747 72.316h-11.182L304.342 3.743zm79.151-.512h12.609v60.313h37.744v11.491h-50.353V3.231z"/>
  </g>
</svg>