<svg xmlns="http://www.w3.org/2000/svg" style="isolation:isolate" viewBox="0 0 150 124">
  <defs>
    <clipPath id="_clipPath_Z11csaQ16xffits6vUrX3KMeLHdwlRep">
      <path d="M0 0h150v124H0z"/>
    </clipPath>
  </defs>
  <g clip-path="url(#_clipPath_Z11csaQ16xffits6vUrX3KMeLHdwlRep)">
    <path fill="none" d="M67.128 2h18.515v18.442H67.128V2z"/>
    <path fill="rgb(249,173,12)" fill-rule="evenodd" d="M76.367 2c-5.117 0-9.203 4.123-9.203 9.203 0 5.116 4.086 9.202 9.203 9.202 5.08 0 9.239-4.086 9.239-9.202 0-5.08-4.159-9.203-9.239-9.203zm0 1.988c3.975 0 7.251 3.239 7.251 7.215 0 4.012-3.276 7.251-7.251 7.251-4.012 0-7.252-3.239-7.252-7.251 0-3.976 3.24-7.215 7.252-7.215zm0 2.024c-2.908 0-5.227 2.319-5.227 5.191 0 2.907 2.319 5.226 5.227 5.226 2.871 0 5.19-2.319 5.19-5.226 0-2.872-2.319-5.191-5.19-5.191z"/>
    <path fill="none" d="M59.103 14h18.515v18H59.103V14z"/>
    <path fill="rgb(249,173,12)" fill-rule="evenodd" d="M65.508 14c-3.718 1.178-6.368 4.638-6.368 8.761 0 5.116 4.086 9.202 9.239 9.202 5.08 0 9.203-4.086 9.203-9.202 0-.111 0-.258-.037-.368-.368.036-.773.073-1.141.073-.295 0-.552-.037-.81-.037v.332c0 4.012-3.239 7.251-7.215 7.251-4.049 0-7.288-3.239-7.288-7.251 0-3.24 2.135-6 5.079-6.921-.257-.589-.478-1.214-.662-1.84zm1.73 3.644c-2.393.515-4.123 2.614-4.123 5.117 0 2.908 2.319 5.227 5.264 5.227 2.871 0 5.19-2.319 5.19-5.227 0-.221 0-.442-.037-.7-2.576-.662-4.822-2.282-6.294-4.417z"/>
    <path fill="none" d="M63.815 35.092h18.441v13.362H63.815V35.092z"/>
    <path fill="rgb(249,173,12)" fill-rule="evenodd" d="M73.017 35.092c-5.08 0-9.202 4.159-9.202 9.239 0 1.473.331 2.871.92 4.086l1.988-.552c-.589-1.067-.921-2.245-.921-3.534 0-4.012 3.24-7.251 7.215-7.251 4.012 0 7.252 3.239 7.252 7.251 0 1.289-.332 2.467-.921 3.534l1.951.552c.589-1.215.921-2.613.921-4.086 0-5.08-4.086-9.239-9.203-9.239zm0 4.012c-2.871 0-5.19 2.319-5.19 5.227 0 1.105.331 2.099.883 2.945l4.344-1.252 4.307 1.252c.552-.846.883-1.84.883-2.945 0-2.908-2.319-5.227-5.227-5.227z"/>
    <path fill="none" d="M27.41 107.902h91.251v2.908H27.41v-2.908z"/>
    <path fill="rgb(32,146,197)" fill-rule="evenodd" d="M118.625 107.902H27.41v2.834h91.215v-2.834z"/>
    <path fill="none" d="M20.894 113.497h104.283v2.871H20.894v-2.871z"/>
    <path fill="rgb(32,146,197)" fill-rule="evenodd" d="M125.14 113.497H20.894v2.834H125.14v-2.834z"/>
    <path fill="none" d="M27.41 63.435h91.251v2.872H27.41v-2.872z"/>
    <path fill="rgb(32,146,197)" fill-rule="evenodd" d="M118.625 63.435H27.41v2.835h91.215v-2.835z"/>
    <path fill="none" d="M30.87 71.497h8.687v12.994H30.87V71.497z"/>
    <path fill="rgb(32,146,197)" fill-rule="evenodd" d="M30.87 81.62h2.761v-6.663h-2.43v-2.135c.736-.147 1.362-.368 1.877-.552.516-.184.994-.442 1.51-.773h2.576V81.62h2.319v2.797H30.87V81.62z"/>
    <path fill="none" d="M46.109 71.497h8.687v12.994h-8.687V71.497z"/>
    <path fill="rgb(32,146,197)" fill-rule="evenodd" d="M46.109 81.62h2.761v-6.663h-2.43v-2.135c.737-.147 1.362-.368 1.841-.552.515-.184 1.031-.442 1.509-.773h2.577V81.62h2.356v2.797h-8.614V81.62z"/>
    <path fill="none" d="M61.312 71.497h8.687v12.994h-8.687V71.497z"/>
    <path fill="rgb(32,146,197)" fill-rule="evenodd" d="M61.312 81.62h2.797v-6.663h-2.466v-2.135c.736-.147 1.399-.368 1.914-.552.515-.184 1.031-.442 1.509-.773h2.54V81.62h2.319v2.797h-8.613V81.62z"/>
    <path fill="none" d="M75.888 71.276h9.681v13.473h-9.681V71.276z"/>
    <path fill="rgb(32,146,197)" fill-rule="evenodd" d="M80.71 84.675c-.736 0-1.399-.147-1.951-.442-.589-.294-1.104-.736-1.546-1.288-.405-.589-.736-1.288-.957-2.135-.22-.81-.368-1.804-.368-2.871 0-1.105.148-2.099.368-2.945.221-.847.552-1.509.957-2.061.442-.553.957-.958 1.546-1.252.552-.258 1.215-.405 1.951-.405.7 0 1.326.147 1.915.405.588.294 1.104.699 1.545 1.252.442.552.773 1.251.994 2.061.258.846.368 1.84.368 2.945 0 1.067-.11 2.061-.368 2.871-.221.847-.552 1.546-.994 2.135-.441.552-.957.994-1.545 1.288-.589.295-1.215.442-1.915.442zm0-2.687c.184 0 .368-.037.552-.148.185-.11.369-.294.479-.625.147-.295.258-.7.331-1.215.074-.552.111-1.215.111-2.061 0-.884-.037-1.546-.111-2.099-.073-.515-.184-.92-.331-1.214-.11-.258-.294-.442-.479-.552-.184-.074-.368-.111-.552-.111-.221 0-.405.037-.589.111-.184.11-.331.294-.478.552-.147.294-.258.699-.332 1.214-.073.553-.11 1.215-.11 2.099 0 .846.037 1.509.11 2.061.074.515.185.92.332 1.215.147.331.294.515.478.625.184.111.368.148.589.148z"/>
    <path fill="none" d="M91.79 71.497h8.614v12.994H91.79V71.497z"/>
    <path fill="rgb(32,146,197)" fill-rule="evenodd" d="M91.79 81.62h2.761v-6.663h-2.466v-2.135c.736-.147 1.362-.368 1.877-.552.515-.184 1.031-.442 1.509-.773h2.614V81.62h2.282v2.797H91.79V81.62z"/>
    <path fill="none" d="M106.993 71.497h8.687v12.994h-8.687V71.497z"/>
    <path fill="rgb(32,146,197)" fill-rule="evenodd" d="M106.993 81.62h2.76v-6.663h-2.429v-2.135c.736-.147 1.362-.368 1.877-.552.515-.184.994-.442 1.509-.773h2.54V81.62h2.356v2.797h-8.613V81.62z"/>
    <path fill="none" d="M30.244 89.534h9.644v13.435h-9.644V89.534z"/>
    <path fill="rgb(32,146,197)" fill-rule="evenodd" d="M35.029 102.932c-.736 0-1.362-.184-1.951-.478-.588-.294-1.104-.7-1.509-1.288-.442-.553-.773-1.252-.994-2.099-.221-.846-.331-1.803-.331-2.908 0-1.104.11-2.061.331-2.871.221-.846.552-1.546.994-2.098.405-.552.921-.957 1.509-1.215.589-.294 1.215-.441 1.951-.441.7 0 1.362.147 1.951.441.589.258 1.105.663 1.546 1.215.405.552.737 1.252.994 2.098.221.81.331 1.767.331 2.871 0 1.105-.11 2.062-.331 2.908-.257.847-.589 1.546-.994 2.099-.441.588-.957.994-1.546 1.288-.589.294-1.251.478-1.951.478zm0-2.723c.184 0 .368-.037.553-.148.184-.11.368-.294.515-.589.147-.294.258-.736.331-1.251.111-.515.147-1.215.147-2.062 0-.846-.036-1.545-.147-2.061-.073-.515-.184-.92-.331-1.178-.147-.294-.331-.478-.515-.552-.185-.11-.369-.147-.553-.147-.221 0-.405.037-.588.147-.185.074-.332.258-.479.552-.147.258-.221.663-.331 1.178-.074.516-.111 1.215-.111 2.061 0 .847.037 1.547.111 2.062.11.515.184.957.331 1.251.147.295.294.479.479.589.183.111.367.148.588.148z"/>
    <path fill="none" d="M46.109 89.791h8.687v12.921h-8.687V89.791z"/>
    <path fill="rgb(32,146,197)" fill-rule="evenodd" d="M46.109 99.877h2.761v-6.699h-2.43v-2.135c.737-.147 1.362-.331 1.841-.515.515-.184 1.031-.442 1.509-.737h2.577v10.086h2.356v2.798h-8.614v-2.798z"/>
    <path fill="none" d="M60.649 89.534h9.681v13.435h-9.681V89.534z"/>
    <path fill="rgb(32,146,197)" fill-rule="evenodd" d="M65.508 102.932c-.736 0-1.399-.184-1.988-.478s-1.104-.7-1.509-1.288c-.442-.553-.773-1.252-.994-2.099-.221-.846-.331-1.803-.331-2.908 0-1.104.11-2.061.331-2.871.221-.846.552-1.546.994-2.098.405-.552.92-.957 1.509-1.215.589-.294 1.252-.441 1.988-.441.699 0 1.362.147 1.914.441.626.258 1.104.663 1.546 1.215.442.552.773 1.252.994 2.098.221.81.331 1.767.331 2.871 0 1.105-.11 2.062-.331 2.908-.221.847-.552 1.546-.994 2.099-.442.588-.92.994-1.546 1.288-.552.294-1.215.478-1.914.478zm0-2.723c.221 0 .405-.037.552-.148.221-.11.368-.294.515-.589.111-.294.221-.736.295-1.251.11-.515.147-1.215.147-2.062 0-.846-.037-1.545-.147-2.061-.074-.515-.184-.92-.295-1.178-.147-.294-.294-.478-.515-.552-.147-.11-.331-.147-.552-.147-.221 0-.405.037-.626.147-.184.074-.331.258-.478.552-.111.258-.221.663-.332 1.178-.073.516-.11 1.215-.11 2.061 0 .847.037 1.547.11 2.062.111.515.221.957.332 1.251.147.295.294.479.478.589.221.111.405.148.626.148z"/>
    <path fill="none" d="M76.551 89.791h8.687v12.921h-8.687V89.791z"/>
    <path fill="rgb(32,146,197)" fill-rule="evenodd" d="M76.551 99.877h2.76v-6.699h-2.429v-2.135c.736-.147 1.362-.331 1.877-.515.516-.184 1.031-.442 1.51-.737h2.576v10.086h2.319v2.798h-8.613v-2.798z"/>
    <path fill="none" d="M91.79 89.791h8.614v12.921H91.79V89.791z"/>
    <path fill="rgb(32,146,197)" fill-rule="evenodd" d="M91.79 99.877h2.761v-6.699h-2.466v-2.135c.736-.147 1.362-.331 1.877-.515.515-.184 1.031-.442 1.509-.737h2.614v10.086h2.282v2.798H91.79v-2.798z"/>
    <path fill="none" d="M106.33 89.534h9.681v13.435h-9.681V89.534z"/>
    <path fill="rgb(32,146,197)" fill-rule="evenodd" d="M111.152 102.932c-.736 0-1.362-.184-1.951-.478s-1.104-.7-1.546-1.288c-.405-.553-.736-1.252-.957-2.099-.221-.846-.331-1.803-.331-2.908 0-1.104.11-2.061.331-2.871.221-.846.552-1.546.957-2.098.442-.552.957-.957 1.546-1.215.589-.294 1.215-.441 1.951-.441.699 0 1.325.147 1.951.441.589.258 1.104.663 1.509 1.215.442.552.773 1.252 1.031 2.098.221.81.331 1.767.331 2.871 0 1.105-.11 2.062-.331 2.908-.258.847-.589 1.546-1.031 2.099-.405.588-.92.994-1.509 1.288-.626.294-1.252.478-1.951.478zm0-2.723c.184 0 .368-.037.552-.148.184-.11.368-.294.479-.589.147-.294.257-.736.331-1.251.074-.515.147-1.215.147-2.062 0-.846-.073-1.545-.147-2.061-.074-.515-.184-.92-.331-1.178-.111-.294-.295-.478-.479-.552-.184-.11-.368-.147-.552-.147-.221 0-.405.037-.589.147-.184.074-.331.258-.478.552-.148.258-.258.663-.332 1.178-.073.516-.11 1.215-.11 2.061 0 .847.037 1.547.11 2.062.074.515.184.957.332 1.251.147.295.294.479.478.589.184.111.368.148.589.148z"/>
    <path fill="none" d="M87.41 17.865h51.865v86.172H87.41V17.865z"/>
    <path fill="rgb(32,146,197)" fill-rule="evenodd" d="M90.318 17.865c-1.509 0-2.724 1.252-2.871 2.54-.185 1.252.662 2.797 2.098 3.202 32.613 9.387 50.797 44.025 41.411 76.638h.037c-.258.773-.148 1.694.257 2.356.442.663 1.031 1.068 1.693 1.252.663.184 1.399.184 2.099-.148.699-.331 1.288-1.067 1.509-1.877 10.27-35.595-9.718-73.546-45.387-83.852-.294-.074-.552-.111-.846-.111z"/>
    <path fill="none" d="M125.729 92.699h19.288v19.473h-19.288V92.699z"/>
    <path fill="rgb(32,146,197)" fill-rule="evenodd" d="M144.98 98.258l-19.251-5.559 4.859 19.436 3.865-3.755 10.527-10.122z"/>
    <path fill="none" d="M4.993 21.068h43.104v91.325H4.993V21.068z"/>
    <path fill="rgb(32,146,197)" fill-rule="evenodd" d="M44.931 21.068c-.368.036-.699.147-1.03.294-33.645 15.644-48.258 55.62-32.688 89.227.332.736 1.031 1.362 1.804 1.62.736.22 1.473.11 2.098-.184.589-.258 1.141-.773 1.473-1.51.294-.699.257-1.619-.111-2.392l.037.037c-14.282-30.773-.957-67.215 29.853-81.497h-.037c1.325-.589 1.951-2.172 1.62-3.35-.295-1.215-1.583-2.356-3.019-2.245z"/>
    <g>
      <path fill="none" d="M35.618 17.35h19.988v18.22H35.618V17.35z"/>
      <path fill="rgb(32,146,197)" fill-rule="evenodd" d="M50.121 18.638L35.618 17.35l8.43 18.184 11.521-16.417-5.448-.479z"/>
    </g>
    <g>
      <path fill="none" d="M14.416 119.092h117.239V122H14.416v-2.908z"/>
      <path fill="rgb(32,146,197)" fill-rule="evenodd" d="M131.618 119.092H14.416v2.834h117.202v-2.834z"/>
    </g>
    <g>
      <path fill="none" d="M27.005 44.626h92.024v16.086H27.005V44.626z"/>
      <path fill="rgb(32,146,197)" fill-rule="evenodd" d="M72.612 44.626l-45.57 13.325.368 2.724h91.215l.368-2.724-45.608-13.325h-.773zm.405 2.797l35.816 10.491H37.201l35.816-10.491z"/>
    </g>
  </g>
</svg>