<svg xmlns="http://www.w3.org/2000/svg" viewBox="0 0 512 512">
    <path fill="#403e3e" d="M488 288h-16v-16h16V96H24v176h16v16H24c-4.384 0-8.064-1.552-11.256-4.744C9.544 280.056 8 276.376 8 272V96c0-4.376 1.544-8.056 4.736-11.248C15.944 81.544 19.624 80 24 80h464c4.376 0 8.056 1.544 11.248 4.736 3.2 3.2 4.752 6.88 4.752 11.264v176c0 4.024-1.824 8.336-4.744 11.256C496.072 286.448 492.384 288 488 288z"/>
    <path fill="#403e3e" d="M192 272h128v16H192z"/>
    <path fill="#403e3e" d="M328 352h-16V248c0-6.264 2.528-12.248 7.136-16.848 9.232-9.224 24.504-9.216 33.728-.008C357.472 235.752 360 241.736 360 248v64h-16v-64c0-2.016-.848-3.936-2.464-5.544-3.2-3.2-7.864-3.208-11.088.008-1.6 1.6-2.448 3.52-2.448 5.536v104z"/>
    <path fill="#403e3e" d="M392 312h-16v-80c0-2.016-.848-3.936-2.464-5.544-3.2-3.2-7.864-3.208-11.088.008-1.6 1.6-2.448 3.52-2.448 5.536v80h-16v-80c0-6.264 2.528-12.248 7.136-16.848 9.232-9.224 24.504-9.216 33.728-.008C389.472 219.752 392 225.736 392 232v80z"/>
    <path fill="#403e3e" d="M424 312h-16v-64c0-2.016-.848-3.936-2.464-5.544-3.2-3.2-7.864-3.208-11.088.008-1.6 1.6-2.448 3.52-2.448 5.536v64h-16v-64c0-6.264 2.528-12.248 7.136-16.848 9.232-9.224 24.504-9.216 33.728-.008C421.472 235.752 424 241.736 424 248v64z"/>
    <path fill="#403e3e" d="M432 456h-16v-25.456l24-64V264c0-2.016-.848-3.936-2.464-5.544-3.2-3.2-7.864-3.208-11.088.008-1.6 1.6-2.448 3.52-2.448 5.536v48h-16v-48c0-6.264 2.528-12.248 7.136-16.848 9.232-9.224 24.504-9.216 33.728-.008C453.472 251.752 456 257.736 456 264v105.456l-24 64V456zM336 456h-16v-20.776c-8.968-9.528-40-44.712-40-75.224v-40c0-6.256 2.528-12.24 7.136-16.848 9.248-9.232 24.504-9.216 33.72-.016C325.472 307.76 328 313.744 328 320h-16c0-2.016-.848-3.936-2.464-5.552-3.2-3.184-7.856-3.2-11.096.016-1.592 1.6-2.44 3.52-2.44 5.536v40c0 23.48 27.184 55.848 37.656 66.344l2.344 2.344V456z"/>
    <path fill="#f96232" d="M440 512h-16v-48h-96v48h-16v-48c0-4.384 1.552-8.072 4.744-11.256S323.616 448 328 448h96c4.384 0 8.072 1.552 11.256 4.744S440 459.616 440 464v48z"/>
    <path fill="#f96232" d="M344 480h16v16h-16z"/>
    <path fill="#403e3e" d="M200 352h-16V248c0-2.016-.848-3.936-2.456-5.544-3.216-3.208-7.864-3.208-11.088 0-1.608 1.608-2.456 3.528-2.456 5.544v64h-16v-64c0-6.264 2.536-12.248 7.144-16.856 9.208-9.208 24.504-9.208 33.712 0C197.464 235.752 200 241.736 200 248v104z"/>
    <path fill="#403e3e" d="M168 312h-16v-80c0-2.016-.848-3.936-2.456-5.544-3.216-3.208-7.864-3.208-11.088 0-1.608 1.608-2.456 3.528-2.456 5.544v80h-16v-80c0-6.264 2.536-12.248 7.144-16.856 9.208-9.208 24.504-9.208 33.712 0C165.464 219.752 168 225.736 168 232v80z"/>
    <path fill="#403e3e" d="M136 312h-16v-64c0-2.016-.848-3.936-2.456-5.544-3.216-3.208-7.864-3.208-11.088 0-1.608 1.608-2.456 3.528-2.456 5.544v64H88v-64c0-6.264 2.536-12.248 7.144-16.856 9.208-9.208 24.504-9.208 33.712 0C133.464 235.752 136 241.736 136 248v64z"/>
    <path fill="#403e3e" d="M96 456H80v-22.544l-24-64V264c0-6.264 2.536-12.248 7.144-16.856 9.208-9.208 24.504-9.208 33.712 0C101.464 251.752 104 257.736 104 264v48H88v-48c0-2.016-.848-3.936-2.456-5.544-3.216-3.208-7.864-3.208-11.088 0C72.848 260.064 72 261.984 72 264v102.544l24 64V456zM192 456h-16v-27.312l2.336-2.344C188.816 415.848 216 383.48 216 360v-40c0-2.016-.848-3.936-2.464-5.544-3.2-3.2-7.864-3.208-11.088.008-1.6 1.6-2.448 3.52-2.448 5.536h-16c0-6.256 2.536-12.248 7.144-16.856 9.224-9.216 24.504-9.208 33.712-.008C229.464 307.752 232 313.744 232 320v40c0 30.512-31.032 65.696-40 75.224V456z"/>
    <path fill="#f96232" d="M200 512h-16v-48H88v48H72v-48c0-4.376 1.544-8.056 4.736-11.248C79.664 449.824 83.984 448 88 448h96c4.384 0 8.064 1.552 11.256 4.744C198.184 455.68 200 459.984 200 464v48z"/>
    <path fill="#f96232" d="M152 480h16v16h-16z"/>
    <path fill="#403e3e" d="M264 88h-16V72c0-2.016-.848-3.936-2.456-5.544C243.936 64.848 242.016 64 240 64h-48c-6.264 0-12.248-2.536-16.856-7.144S168 46.264 168 40s2.536-12.248 7.144-16.856S185.736 16 192 16h96c2.016 0 3.936-.848 5.544-2.464C295.152 11.936 296 10.016 296 8V0h16v8c0 6.264-2.528 12.248-7.136 16.848C300.248 29.464 294.256 32 288 32h-96c-2.016 0-3.936.848-5.544 2.456C184.848 36.064 184 37.984 184 40s.848 3.936 2.456 5.544C188.064 47.152 189.984 48 192 48h48c6.264 0 12.248 2.536 16.856 7.144C261.464 59.752 264 65.736 264 72v16z"/>
    <path fill="#43d3e8" d="M56 112h16v16H56zM88 112h16v16H88zM120 112h16v16h-16zM152 112h16v16h-16zM184 112h16v16h-16zM216 112h16v16h-16zM248 112h16v16h-16zM280 112h16v16h-16zM312 112h16v16h-16zM344 112h16v16h-16zM376 112h16v16h-16zM408 112h16v16h-16zM440 112h16v16h-16zM40 144h16v16H40zM72 144h16v16H72zM104 144h16v16h-16zM136 144h16v16h-16zM168 144h16v16h-16zM200 144h16v16h-16zM232 144h16v16h-16zM264 144h16v16h-16zM296 144h16v16h-16zM328 144h16v16h-16zM360 144h16v16h-16zM392 144h16v16h-16zM424 144h16v16h-16zM456 144h16v16h-16zM56 176h16v16H56zM88 176h16v16H88zM120 176h16v16h-16zM152 176h16v16h-16zM184 176h16v16h-16zM216 176h16v16h-16zM248 176h16v16h-16zM280 176h16v16h-16zM312 176h16v16h-16zM344 176h16v16h-16zM376 176h16v16h-16zM408 176h16v16h-16zM440 176h16v16h-16zM40 208h16v16H40zM72 208h16v16H72zM200 208h16v16h-16zM232 208h16v16h-16zM264 208h16v16h-16zM296 208h16v16h-16zM424 208h16v16h-16zM456 208h16v16h-16z"/>
    <path fill="#f96232" d="M216 240h80v16h-80z"/>
</svg>
