<svg xmlns="http://www.w3.org/2000/svg" viewBox="0 0 496 496">
    <path fill="#43d3e8" d="M80 496H0V0h80v496zm-64-16h48V16H16v464z"/>
    <path fill="#43d3e8" d="M8 448h24v16H8zM8 416h24v16H8zM8 384h24v16H8zM8 352h24v16H8zM8 320h24v16H8zM8 288h24v16H8zM8 256h24v16H8zM8 224h24v16H8zM8 192h24v16H8zM8 160h24v16H8zM8 128h24v16H8zM8 96h24v16H8zM8 64h24v16H8zM32 32h16v16H32z"/>
    <path fill="#403e3e" d="M112 56h16v376h-16zM176 56h16v376h-16zM144 56h16v344h-16z"/>
    <path fill="#403e3e" d="M152 496c-2.872 0-5.52-1.536-6.944-4.032l-32-56c-1.792-3.136-1.264-7.08 1.288-9.624l32-32c3.128-3.128 8.184-3.128 11.312 0l32 32c2.552 2.544 3.08 6.496 1.288 9.624l-32 56C157.52 494.464 154.872 496 152 496zm-22.024-62.664L152 471.872l22.024-38.536L152 411.312l-22.024 22.024zM192 64h-80V24c0-6.264 2.536-12.248 7.144-16.856C123.752 2.536 129.736 0 136 0h32c6.264 0 12.248 2.536 16.856 7.144S192 17.736 192 24v40zm-64-16h48V24c0-2.016-.848-3.936-2.456-5.544C171.936 16.848 170.016 16 168 16h-32c-2.016 0-3.936.848-5.544 2.456C128.848 20.064 128 21.984 128 24v24zM440 496h-16c-4.384 0-8.072-1.552-11.256-4.744S408 484.384 408 480v-24h16v24h16v-24h16v24c0 4.384-1.552 8.072-4.744 11.256S444.384 496 440 496zM424 0h16v32h-16z"/>
    <path fill="#f96232" d="M464 464h-64V70.464L418.584 24h26.832L464 70.464V464zm-48-16h32V73.536L434.584 40h-5.168L416 73.536V448z"/>
    <path fill="#403e3e" d="M400 96h64v16h-64zM400 128h64v16h-64zM472 432h-72v-16h72c2.016 0 3.936-.848 5.552-2.464 1.6-1.6 2.448-3.52 2.448-5.536V256h16v152c0 6.256-2.528 12.24-7.136 16.848C484.24 429.472 478.256 432 472 432z"/>
    <path fill="#f96232" d="M304 264h-16v-16c0-2.016-.848-3.936-2.464-5.544-1.6-1.608-3.52-2.456-5.536-2.456h-32c-6.264 0-12.248-2.536-16.856-7.144S224 222.264 224 216s2.536-12.248 7.144-16.856S241.736 192 248 192h96c2.016 0 3.936-.848 5.544-2.464 1.608-1.6 2.456-3.52 2.456-5.536v-16h16v16c0 6.264-2.528 12.248-7.136 16.848C356.248 205.464 350.256 208 344 208h-96c-2.016 0-3.936.848-5.544 2.456-1.608 1.608-2.456 3.528-2.456 5.544s.848 3.936 2.456 5.544c1.608 1.608 3.528 2.456 5.544 2.456h32c6.256 0 12.248 2.536 16.856 7.144C301.472 235.752 304 241.736 304 248v16z"/>
    <g>
        <path fill="#403e3e" d="M328 496h-64c-22.056 0-40-17.944-40-40V296c0-22.056 17.944-40 40-40h64c22.056 0 40 17.944 40 40v160c0 22.056-17.944 40-40 40zm-64-224c-13.232 0-24 10.768-24 24v160c0 13.232 10.768 24 24 24h64c13.232 0 24-10.768 24-24V296c0-13.232-10.768-24-24-24h-64z"/>
        <path fill="#403e3e" d="M232 320h128v16H232z"/>
    </g>
    <path fill="#f96232" d="M288 288h16v16h-16z"/>
    <g>
        <path fill="#403e3e" d="M352 128h16v16h-16zM336 144h-16v-16h16v16zm-32 0h-16v-16h16v16zm-32 0h-16v-16h16v16zM224 128h16v16h-16zM240 112h-16V96h16v16zm0-32h-16V64h16v16zm0-32h-16V32h16v16zM224 0h16v16h-16zM336 16h-16V0h16v16zm-32 0h-16V0h16v16zm-32 0h-16V0h16v16zM352 0h16v16h-16zM368 112h-16V96h16v16zm0-32h-16V64h16v16zm0-32h-16V32h16v16z"/>
    </g>
    <path fill="#43d3e8" d="M336 112h-80V32h80v80zm-64-16h48V48h-48v48z"/>
</svg>
