<svg xmlns="http://www.w3.org/2000/svg" viewBox="0 0 512 512">
    <path fill="#403e3e" d="M480 416H32c-8.576 0-16.128-3.208-22.464-9.544C3.208 400.128 0 392.568 0 384v-48h512v48c0 8.576-3.208 16.136-9.552 22.464C496.136 412.792 488.576 416 480 416zM16 352v32c0 4.288 1.544 7.832 4.856 11.144S27.712 400 32 400h448c4.288 0 7.832-1.536 11.136-4.848 3.328-3.32 4.864-6.864 4.864-11.152v-32H16z"/>
    <path fill="#403e3e" d="M512 352H0V48c0-8.568 3.208-16.128 9.544-22.456S23.432 16 32 16h448c8.568 0 16.128 3.208 22.456 9.536C508.792 31.872 512 39.432 512 48v304zM16 336h480V48c0-4.288-1.544-7.832-4.856-11.144C487.832 33.544 484.288 32 480 32H32c-4.288 0-7.832 1.544-11.144 4.856S16 43.712 16 48v288zM368 496h-16c0-2.016-.848-3.936-2.464-5.552-1.6-1.6-3.52-2.448-5.536-2.448H168c-2.016 0-3.936.848-5.544 2.464-1.608 1.6-2.456 3.52-2.456 5.536h-16c0-6.256 2.536-12.248 7.144-16.856C155.752 474.528 161.736 472 168 472h176c6.256 0 12.24 2.528 16.848 7.136C365.472 483.76 368 489.744 368 496z"/>
    <path fill="#403e3e" d="M335.9340814 479.0850394l-15.9024 1.7664-7.9930704-71.9593539 15.9024-1.7664zM199.9861932 408.9339604l-7.9930704 71.9593539-15.9024-1.7664 7.9930704-71.9593539zM232 368h48v16h-48z"/>
    <path fill="#43d3e8" d="M480 320H32V48h448v272zM48 304h416V64H48v240z"/>
    <path fill="#f96232" d="M112 160H64v-48h48v48zm-32-16h16v-16H80v16zM448 160h-48V80h48v80zm-32-16h16V96h-16v48zM112 224H64v-48h48v48zm-32-16h16v-16H80v16zM112 288H64v-48h48v48zm-32-16h16v-16H80v16z"/>
    <path fill="#403e3e" d="M64 80h16v16H64zM96 80h16v16H96zM128 80h16v16h-16zM400 176h48v16h-48zM400 208h48v16h-48zM400 240h48v16h-48zM400 272h48v16h-48zM256 184.944l-83.576-41.784 7.152-14.32L256 167.056l76.424-38.216 7.152 14.32z"/>
    <path fill="#403e3e" d="M256 280.944l-88-44V131.056l88-44 88 44v105.888l-88 44zm-72-53.888l72 36 72-36v-86.112l-72-36-72 36v86.112z"/>
    <path fill="#403e3e" d="M248 176h16v96h-16z"/>
</svg>
