<svg xmlns="http://www.w3.org/2000/svg" viewBox="0 0 512.007 512.007">
    <path fill="#f96232" d="M469.6474448 82.337217l-11.3136 11.3136-39.9928689-39.9928689 11.3136-11.3136zM133.6566681 389.6638751l-71.9990433 71.9990433-11.3136-11.3136 71.9990433-71.9990433z"/>
    <path fill="#f96232" d="M59.313 512.003H36.689L.001 475.315v-22.624l90.344-90.344 11.312 11.312-85.656 85.656v9.376l27.312 27.312h9.376l101.656-101.656 11.312 11.312zM449.6771601 73.6344239l-60.0009705 60.0009705-11.3136-11.3136 60.0009705-60.0009705z"/>
    <path fill="#f96232" d="M421.657 149.659l-11.312-11.312 54.832-54.84 24.464-61.144-61.152 24.456-70.832 70.84-11.312-11.312 72-72c.768-.768 1.68-1.368 2.688-1.776l80-32c2.952-1.176 6.36-.496 8.624 1.776 2.264 2.264 2.96 5.656 1.776 8.632l-32 80c-.408 1-1.008 1.92-1.776 2.68l-56 56zM85.6925255 474.3454083l-11.3136 11.3136-47.9972409-47.9972409 11.3136-11.3136z"/>
    <path fill="#43d3e8" d="M93.6474667 53.6697055L53.6545978 93.6625744l-11.3136-11.3136 39.9928689-39.9928689zM461.6817415 450.3685255l-11.3136 11.3136-71.9990433-71.9990433 11.3136-11.3136z"/>
    <path fill="#43d3e8" d="M475.313 512.003h-22.624L346.345 405.659l11.312-11.312 101.656 101.656h9.376l27.312-27.312v-9.376l-85.656-85.656 11.312-11.312 90.344 90.344v22.624zM133.6621607 122.3500175l-11.3136 11.3136L62.3475902 73.662647l11.3136-11.3136z"/>
    <path fill="#43d3e8" d="M90.345 149.659l-56-56c-.768-.768-1.368-1.68-1.776-2.68l-32-80C-.615 8.003.081 4.611 2.345 2.347 4.601.083 8.001-.605 10.977.571l80 32c1 .4 1.92 1.008 2.68 1.776l72 72-11.312 11.312-70.84-70.84-61.144-24.456 24.456 61.144 54.84 54.84-11.312 11.312zM485.655674 437.6645408l-47.9972409 47.9972409-11.3136-11.3136 47.9972409-47.9972409z"/>
    <path fill="#403e3e" d="M256.001 400.003c-79.4 0-144-64.6-144-144s64.6-144 144-144 144 64.6 144 144-64.6 144-144 144zm0-272c-70.576 0-128 57.424-128 128s57.424 128 128 128 128-57.424 128-128-57.424-128-128-128z"/>
    <path fill="#43d3e8" d="M256.001 344.003c-48.52 0-88-39.48-88-88 0-9.224 1.208-16.952 3.704-23.608.984-2.624 3.256-4.536 6-5.056 2.736-.528 5.56.424 7.432 2.504 5.816 6.464 14.144 10.16 22.864 10.16 17.944 0 32-14.056 32-32 0-8.72-3.696-17.048-10.152-22.856-2.08-1.864-3.024-4.688-2.504-7.432s2.432-5.024 5.056-6c6.648-2.504 14.376-3.712 23.6-3.712 48.52 0 88 39.48 88 88s-39.48 88-88 88zm-71.736-94.464c-.176 2.024-.264 4.176-.264 6.464 0 39.704 32.304 72 72 72 39.704 0 72-32.296 72-72 0-39.696-32.296-72-72-72-2.288 0-4.44.088-6.464.264 4.184 7.12 6.464 15.312 6.464 23.736 0 26.912-21.088 48-48 48-8.424 0-16.616-2.28-23.736-6.464z"/>
    <path fill="#403e3e" d="M256.001 400.003c-97.168 0-189.92-50.768-254.464-139.288-2.048-2.808-2.048-6.624 0-9.432 64.544-88.512 157.296-139.28 254.464-139.28s189.92 50.768 254.464 139.288c2.056 2.808 2.056 6.624 0 9.432-64.552 88.512-157.296 139.28-254.464 139.28zm-238.04-144c61.312 81.424 147.768 128 238.04 128 90.264 0 176.728-46.576 238.048-128-61.32-81.424-147.776-128-238.048-128s-176.728 46.576-238.04 128zM216.001 64.003h16v16h-16zM248.001 64.003h16v16h-16zM280.001 64.003h16v16h-16zM216.001 432.003h16v16h-16zM248.001 432.003h16v16h-16zM280.001 432.003h16v16h-16z"/>
</svg>
