<svg xmlns="http://www.w3.org/2000/svg" viewBox="0 0 512 512">
    <path fill="#f96232" d="M512 512H0v-96h512v96zM16 496h480v-64H16v64z"/>
    <path fill="#f96232" d="M456 456h16v16h-16zM416 424h16v24h-16zM384 424h16v24h-16zM352 424h16v24h-16zM320 424h16v24h-16zM288 424h16v24h-16zM256 424h16v24h-16zM224 424h16v24h-16zM192 424h16v24h-16zM160 424h16v24h-16zM128 424h16v24h-16zM96 424h16v24H96zM64 424h16v24H64zM32 424h16v24H32z"/>
    <path fill="#403e3e" d="M512 400H40c-10.392 0-20.352-4.24-28.056-11.944C4.24 380.36 0 370.392 0 360h16c0 6.12 2.576 12.064 7.256 16.744S33.88 384 40 384h456V48H96V32h416v368z"/>
    <path fill="#403e3e" d="M80 360H64c0-13.232-10.768-24-24-24s-24 10.768-24 24H0V40C0 17.944 17.944 0 40 0s40 17.944 40 40v320zm-40-40c9 0 17.312 2.984 24 8.016V40c0-13.232-10.768-24-24-24S16 26.768 16 40v288.016C22.688 322.984 31 320 40 320z"/>
    <path fill="#43d3e8" d="M325.832 353.16L292.688 320h-9.376l-33.152 33.16L216 341.768v-42.456L204.688 288h-42.456l-11.384-34.16L184 220.688v-9.376l-33.152-33.152L162.232 144h42.456L216 132.688V90.232l34.16-11.384L283.312 112h9.376l33.152-33.152L360 90.232v42.456L371.312 144h42.456l11.392 34.16L392 211.312v9.376l33.16 33.152L413.768 288h-42.456L360 299.312v42.456l-34.168 11.392zM276.688 304h22.624l30.848 30.84 13.84-4.608v-37.544L364.688 272h37.544l4.608-13.84L376 227.312v-22.624l30.84-30.848-4.608-13.84h-37.544L344 139.312v-37.544l-13.832-4.616L299.312 128h-22.624L245.84 97.152 232 101.768v37.544L211.312 160h-37.544l-4.616 13.84L200 204.688v22.624l-30.848 30.848 4.616 13.84h37.544L232 292.688v37.544l13.84 4.608L276.688 304z"/>
    <path fill="#43d3e8" d="M288 288c-39.696 0-72-32.304-72-72s32.304-72 72-72c39.704 0 72 32.304 72 72s-32.296 72-72 72zm0-128c-30.88 0-56 25.12-56 56s25.12 56 56 56c30.872 0 56-25.12 56-56s-25.128-56-56-56z"/>
    <path fill="#403e3e" d="M280 176h16v16h-16zM280 208h16v16h-16zM280 240h16v16h-16zM248 208h16v16h-16z"/>
    <g>
        <path fill="#403e3e" d="M280 208h16v16h-16z"/>
    </g>
    <g>
        <path fill="#403e3e" d="M312 208h16v16h-16zM464 112h-16V96h-16V80h32zM464 352h-32v-16h16v-16h16zM128 112h-16V80h32v16h-16zM144 352h-32v-32h16v16h16z"/>
    </g>
</svg>
