<svg xmlns="http://www.w3.org/2000/svg" viewBox="0 0 52.522 52.522">
    <path fill="#26b99a" d="M16.023 21.522H3.975L24.103 1.414l20.08 20.108H32.135S27.843 39.12 48.199 51.234c0 0-15.536 3.02-26.794-10.51-.001.001-5.78-5.991-5.382-19.202z"/>
    <path fill="#26b99a" d="M44.34 52.522c-5.386 0-15.627-1.45-23.705-11.157-.194-.197-5.721-6.08-5.631-18.843H1.559L24.104 0l22.49 22.522H32.96c-.547 3.454-1.559 17.552 15.75 27.853l2.253 1.341-2.574.5c-.063.013-1.602.306-4.049.306zm-37.949-32h10.662l-.03 1.03c-.381 12.643 5.046 18.422 5.101 18.479 8.064 9.686 18.296 10.627 23.08 10.478C27.281 38.241 31.12 21.461 31.163 21.285l.187-.763h10.42L24.102 2.828 6.391 20.522z"/>
</svg>
