<svg xmlns="http://www.w3.org/2000/svg" viewBox="0 0 510.504 510.504">
    <path fill="#f96232" d="M429.656 275.252l-11.312-11.312 8-8c20.504-20.512 32.672-43.216 36.136-67.48l15.84 2.264c-3.968 27.76-17.648 53.504-40.664 76.52l-8 8.008zM248 456.908L58.344 267.252c-23.016-23.016-36.696-48.76-40.664-76.52l15.832-2.264c3.472 24.264 15.624 46.968 36.136 67.48L248 434.284l90.344-90.344 11.312 11.312L248 456.908zM239.288 158.764c-7.48-50.832-51.88-89.168-103.288-89.168s-95.808 38.336-103.288 89.168l-15.832-2.328C25.504 97.804 76.712 53.596 136 53.596s110.496 44.208 119.112 102.832l-15.824 2.336z"/>
    <path fill="#f96232" d="M463.288 158.764c-7.472-50.832-51.88-89.168-103.288-89.168s-95.816 38.336-103.288 89.168l-15.832-2.328c8.624-58.632 59.84-102.84 119.12-102.84 59.288 0 110.504 44.208 119.12 102.832l-15.832 2.336z"/>
    <path fill="#403e3e" d="M240 357.596h16v16h-16zM240 325.596h16v16h-16zM240 293.596h16v16h-16zM240 261.596h16v16h-16zM48 197.596H0v-48h48v48zm-32-16h16v-16H16v16zM272 197.596h-48v-48h48v48zm-32-16h16v-16h-16v16zM496 197.596h-48v-48h48v48zm-32-16h16v-16h-16v16z"/>
    <path fill="#403e3e" d="M264 165.596h96v16h-96zM136 165.596h96v16h-96z"/>
    <path fill="#43d3e8" d="M396.816 436.1l-66.312-180 180 66.312-18.408 18.416-61.504 15.368-15.368 61.504-18.408 18.4zm-39.312-153l44.608 121.08 15.296-61.168 61.168-15.296L357.504 283.1z"/>
</svg>
