<svg xmlns="http://www.w3.org/2000/svg" viewBox="0 0 512 512">
  <path fill="#f96232" d="M200 216h240v16H200zM200 376h240v16H200z"/>
  <path fill="#403e3e" d="M512 488h-16V128c0-6.12-2.576-12.064-7.256-16.744S478.12 104 472 104H135.64c5.424 7 8.36 15.344 8.36 24v360h-16V128c0-6.12-2.576-12.064-7.256-16.736C116.064 106.576 110.12 104 104 104V88h368c10.392 0 20.36 4.24 28.056 11.944C507.76 107.648 512 117.608 512 128v360z"/>
  <path fill="#43d3e8" d="M160 120h16v16h-16zM160 152h16v16h-16zM160 184h16v16h-16zM160 216h16v16h-16zM160 248h16v16h-16zM160 280h16v16h-16zM160 312h16v16h-16zM160 344h16v16h-16zM160 376h16v16h-16zM160 408h16v16h-16zM160 440h16v16h-16zM160 472h16v16h-16zM32 24h16v16H32zM32 56h16v16H32zM32 88h16v16H32zM32 120h16v16H32zM32 152h16v16H32zM32 184h16v16H32zM32 216h16v16H32zM32 248h16v16H32zM32 280h16v16H32zM32 312h16v16H32zM32 344h16v16H32zM32 376h16v16H32zM336 24h16v16h-16zM336 56h16v16h-16zM464 120h16v16h-16zM464 152h16v16h-16zM464 184h16v16h-16zM464 216h16v16h-16zM464 248h16v16h-16zM464 280h16v16h-16zM464 312h16v16h-16zM464 344h16v16h-16zM464 376h16v16h-16zM464 408h16v16h-16zM464 440h16v16h-16zM464 472h16v16h-16z"/>
  <g>
    <path fill="#403e3e" d="M208 488h-16V128c0-6.12-2.576-12.064-7.256-16.736C180.064 106.576 174.12 104 168 104V88c10.392 0 20.36 4.24 28.056 11.944C203.76 107.64 208 117.608 208 128v360zM448 488h-16V128c0-6.12-2.576-12.064-7.256-16.744S414.12 104 408 104V88c10.392 0 20.36 4.24 28.056 11.944C443.76 107.648 448 117.608 448 128v360zM40 424c-10.392 0-20.352-4.24-28.056-11.944C4.24 404.36 0 394.392 0 384V24h16v360c0 6.12 2.576 12.064 7.256 16.744 9.36 9.36 24.128 9.36 33.488 0C61.424 396.064 64 390.12 64 384V128c0-10.392 4.24-20.36 11.944-28.056C83.64 92.24 93.608 88 104 88v16c-6.12 0-12.064 2.576-16.736 7.256C82.576 115.936 80 121.88 80 128v256c0 10.392-4.24 20.36-11.944 28.056C60.352 419.76 50.392 424 40 424z"/>
    <path fill="#403e3e" d="M64 24h16v104H64zM96 408h40v16H96zM304 24h16v72h-16zM368 24h16v72h-16z"/>
  </g>
  <path fill="#f96232" d="M306.128 344H288v-80h18.128l70 40-70 40zM304 281.208v45.576L343.872 304 304 281.208z"/>
</svg>