<svg xmlns="http://www.w3.org/2000/svg" viewBox="0 0 512 512">
    <path fill="#43d3e8" d="M504 512H8v-80h496v80zM24 496h464v-48H24v48z"/>
    <path fill="#43d3e8" d="M40 440h16v24H40zM72 440h16v24H72zM104 440h16v24h-16zM136 440h16v24h-16zM168 440h16v24h-16zM200 440h16v24h-16zM232 440h16v24h-16zM264 440h16v24h-16zM296 440h16v24h-16zM328 440h16v24h-16zM360 440h16v24h-16zM392 440h16v24h-16zM424 440h16v24h-16zM456 464h16v16h-16z"/>
    <path fill="#403e3e" d="M72 336h360v16H72zM72 400h360v16H72zM104 368h328v16H104z"/>
    <path fill="#403e3e" d="M72 416c-1.352 0-2.72-.344-3.968-1.056l-56-32C9.536 381.52 8 378.864 8 376s1.536-5.52 4.032-6.944l56-32c3.136-1.792 7.088-1.256 9.624 1.288l32 32c3.128 3.128 3.128 8.184 0 11.312l-32 32C76.12 415.192 74.064 416 72 416zm-39.872-40l38.536 22.024L92.688 376l-22.024-22.024L32.128 376zM472 416h-48v-80h48v80zm-32-16h16v-48h-16v48z"/>
    <path fill="#403e3e" d="M480 416h-24v-80h24c6.256 0 12.24 2.528 16.848 7.136C501.472 347.76 504 353.744 504 360v32c0 6.256-2.528 12.24-7.136 16.848C492.24 413.472 486.256 416 480 416zm-8-16h8c2.016 0 3.936-.848 5.552-2.464 1.6-1.6 2.448-3.52 2.448-5.536v-32c0-2.016-.848-3.936-2.464-5.552-1.6-1.6-3.52-2.448-5.536-2.448h-8v48zM488 96h16v224h-16zM8 96h16v224H8zM40 32h16v16H40zM72 32h16v16H72zM104 32h16v16h-16z"/>
    <path fill="#43d3e8" d="M504 80H8V0h496v48H136V32h352V16H24v48h480z"/>
    <g>
        <path fill="#403e3e" d="M456 304h16v16h-16zM440 320h-16v-16h16v16zm-32 0h-16v-16h16v16zm-32 0h-16v-16h16v16zm-32 0h-16v-16h16v16zm-32 0h-16v-16h16v16zm-32 0h-16v-16h16v16zm-32 0h-16v-16h16v16zm-32 0h-16v-16h16v16zm-32 0h-16v-16h16v16zm-32 0h-16v-16h16v16zm-32 0h-16v-16h16v16zm-32 0H72v-16h16v16zM40 304h16v16H40zM40 272h16v16H40zM40 240h16v16H40zM440 256h-16v-16h16v16zm-32 0h-16v-16h16v16zm-32 0h-16v-16h16v16zm-32 0h-16v-16h16v16zm-32 0h-16v-16h16v16zm-32 0h-16v-16h16v16zm-32 0h-16v-16h16v16zm-32 0h-16v-16h16v16zm-32 0h-16v-16h16v16zm-32 0h-16v-16h16v16zm-32 0h-16v-16h16v16zm-32 0H72v-16h16v16zM456 240h16v16h-16zM456 272h16v16h-16z"/>
    </g>
    <g>
        <path fill="#f96232" d="M136 224H40v-64h96v64zm-80-16h64v-32H56v32zM248 224h-96v-64h96v64zm-80-16h64v-32h-64v32zM360 224h-96v-64h96v64zm-80-16h64v-32h-64v32zM472 224h-96v-64h96v64zm-80-16h64v-32h-64v32z"/>
    </g>
    <g>
        <path fill="#403e3e" d="M40 96h96v16H40zM56 128h64v16H56zM152 96h96v16h-96zM168 128h64v16h-64zM264 96h96v16h-96zM280 128h64v16h-64zM376 96h96v16h-96zM392 128h64v16h-64z"/>
    </g>
</svg>
