<svg xmlns="http://www.w3.org/2000/svg" style="isolation:isolate" viewBox="0 0 800 400">
    <defs>
        <clipPath id="a">
            <path d="M0 0h800v400H0z"/>
        </clipPath>
    </defs>
    <g clip-path="url(#a)">
        <path fill="rgb(245,130,33)" fill-rule="evenodd" d="M78.953 303.196q-14.718 0-26.906-4.472-12.188-4.473-20.927-12.941-8.739-8.469-13.568-20.458-4.829-11.989-4.829-27.214 0-15.034 4.829-26.928t13.568-20.077q8.739-8.183 20.927-12.56 12.188-4.377 26.906-4.377 14.718 0 26.906 4.377 12.189 4.377 21.042 12.56 8.854 8.183 13.683 20.077 4.83 11.894 4.83 26.928 0 15.225-4.83 27.214-4.829 11.989-13.683 20.458-8.853 8.468-21.042 12.941-12.188 4.472-26.906 4.472zm0-19.221q8.969 0 16.098-3.235 7.129-3.236 12.188-9.23 5.059-5.995 7.819-14.463 2.76-8.469 2.76-18.936 0-20.933-10.464-32.827-10.463-11.894-28.401-11.894-17.937 0-28.401 11.894-10.463 11.894-10.463 32.827 0 10.467 2.759 18.936 2.76 8.468 7.819 14.463 5.06 5.994 12.189 9.23 7.129 3.235 16.097 3.235zm120.733 53.856H173.24V207.472h21.846l1.84 9.896h.92q7.129-4.948 15.868-8.564 8.738-3.615 18.167-3.615 10.579 0 18.742 3.33 8.164 3.33 13.913 9.61 5.75 6.28 8.739 15.034 2.99 8.754 2.99 19.602 0 11.989-4.025 21.409-4.024 9.42-10.693 15.795-6.669 6.376-15.408 9.801-8.739 3.426-18.167 3.426-7.359 0-14.718-2.665-7.359-2.664-14.258-7.612l.69 15.605v29.307zm22.766-52.714q11.269 0 18.858-8.088t7.589-24.074q0-14.082-5.75-21.885-5.749-7.802-18.627-7.802-11.958 0-24.836 10.466v43.58q6.209 4.377 11.958 6.09 5.749 1.713 10.808 1.713zm128.782 18.079q-11.728 0-21.847-3.331-10.119-3.33-17.707-9.61-7.589-6.28-11.844-15.32-4.254-9.039-4.254-20.648 0-11.418 4.369-20.553 4.37-9.134 11.614-15.414 7.244-6.28 16.672-9.706 9.429-3.425 19.317-3.425 11.499 0 20.237 3.235 8.739 3.235 14.603 9.134 5.865 5.9 8.854 14.083 2.99 8.183 2.99 17.889 0 3.235-.345 6.089-.345 2.855-.805 4.568h-71.75q1.84 12.56 10.694 19.316 8.853 6.756 22.651 6.756 7.359 0 13.683-1.808t12.534-5.043l8.968 13.702q-8.049 4.377-17.937 7.231-9.889 2.855-20.697 2.855zm-30.126-57.853h50.133q0-10.847-5.634-17.032-5.634-6.185-17.363-6.185-10.118 0-17.707 5.899-7.589 5.9-9.429 17.318zm124.872 55.569h-26.446v-93.44h21.847l1.84 12.56h.919q7.589-6.089 16.443-10.466 8.854-4.377 20.582-4.377 18.167 0 26.446 9.61t8.279 27.499v58.614h-26.446v-55.759q0-11.609-4.14-16.367-4.139-4.757-13.568-4.757-7.358 0-12.993 2.949-5.634 2.95-12.763 8.659v65.275z"/>
        <path fill="rgb(123,121,121)" d="M612.084 303.079q-10.796 0-19.413-3.441-8.618-3.441-14.773-10.948-6.156-7.507-9.47-19.29-3.315-11.782-3.315-28.674v-76.534h21.971v78.411q0 11.052 1.799 18.664 1.799 7.612 5.114 12.2 3.314 4.588 7.86 6.569 4.545 1.981 10.227 1.981t10.417-1.981q4.735-1.981 8.144-6.569t5.303-12.2q1.894-7.612 1.894-18.664v-78.411h21.023v76.534q0 16.892-3.219 28.674-3.22 11.783-9.376 19.29-6.155 7.507-14.773 10.948-8.617 3.441-19.413 3.441zM711.707 301.577h-21.97V165.192h21.97v61.936h.569l44.129-61.936h24.433l-38.069 53.178 44.508 83.207h-24.243l-33.523-64.23-17.804 24.399v39.831z"/>
    </g>
</svg>
