<svg xmlns="http://www.w3.org/2000/svg" viewBox="0 0 512 512">
    <path fill="#403e3e" d="M256 512c-92.64 0-168-75.368-168-168 0-92.64 75.36-168 168-168 92.632 0 168 75.36 168 168 0 92.632-75.368 168-168 168zm0-320c-83.816 0-152 68.184-152 152s68.184 152 152 152 152-68.184 152-152-68.184-152-152-152z"/>
    <path fill="#f96232" d="M168 336C75.36 336 0 260.64 0 168S75.36 0 168 0s168 75.36 168 168-75.36 168-168 168zm0-320C84.184 16 16 84.184 16 168s68.184 152 152 152 152-68.184 152-152S251.816 16 168 16z"/>
    <path fill="#43d3e8" d="M344 336c-92.64 0-168-75.36-168-168S251.36 0 344 0c92.632 0 168 75.36 168 168s-75.368 168-168 168zm0-320c-83.816 0-152 68.184-152 152s68.184 152 152 152 152-68.184 152-152S427.816 16 344 16z"/>
    <path fill="#403e3e" d="M160 272h16v16h-16zM248 120h16v16h-16zM336 272h16v16h-16z"/>
    <path fill="#f96232" d="M427.944 253.768l-11.096-11.528C436.648 223.2 448 196.152 448 168c0-57.344-46.656-104-104-104-5.888 0-11.864.744-18.184 1.536l-1.984-15.872C330.36 48.84 337.112 48 344 48c66.168 0 120 53.832 120 120 0 32.48-13.144 63.736-36.056 85.768z"/>
    <path fill="#403e3e" d="M84.056 253.768C61.144 231.736 48 200.472 48 168c0-66.168 53.832-120 120-120 6.904 0 13.656.84 20.192 1.664l-1.984 15.872C179.88 64.744 173.904 64 168 64c-57.344 0-104 46.656-104 104 0 28.144 11.352 55.2 31.144 74.232l-11.088 11.536z"/>
    <path fill="#43d3e8" d="M256 464c-60.144 0-111.36-44.952-119.136-104.568l15.864-2.064C159.472 409.032 203.864 448 256 448s96.528-38.968 103.272-90.632l15.856 2.064C367.36 419.048 316.144 464 256 464z"/>
</svg>
