<svg xmlns="http://www.w3.org/2000/svg" viewBox="0 0 512 512">
    <path fill="#f96232" d="M216 224h16v152h-16zM280 224h16v152h-16zM248 256h16v120h-16z"/>
    <path fill="#f96232" d="M256 264c-2.048 0-4.096-.784-5.656-2.344l-32-32c-2.552-2.552-3.08-6.496-1.288-9.624l32-56c2.84-4.984 11.048-4.984 13.888 0l32 56c1.792 3.136 1.264 7.072-1.288 9.624l-32 32c-1.56 1.56-3.608 2.344-5.656 2.344zm-22.024-41.336L256 244.688l22.024-22.024L256 184.128l-22.024 38.536z"/>
    <path fill="#43d3e8" d="M104.768 168.752l-15.928-1.504c7.544-79.616 70.8-142.864 150.408-150.408l1.504 15.928c-71.976 6.816-129.168 64.008-135.984 135.984zM200 376h-16v-40.432c-53.256-24.96-89.536-76.144-95.168-134.808l15.928-1.52c5.232 54.608 39.872 102.048 90.4 123.816l4.84 2.08V376zM328 376h-16v-50.864l4.832-2.08c50.52-21.768 85.168-69.208 90.408-123.824l15.92 1.528c-5.624 58.664-41.904 109.848-95.16 134.808V376z"/>
    <path fill="#403e3e" d="M276.28 512h-40.56L216 482.424V464h16v13.576L244.28 496h23.44L280 477.576V464h16v18.424zM168 368h176v16H168zM168 400h176v16H168zM168 432h176v16H168z"/>
    <path fill="#403e3e" d="M312 480H200c-4.384 0-8.064-1.552-11.256-4.744-3.2-3.2-4.744-6.88-4.744-11.256v-88h16v88h112v-88h16v88c0 4.384-1.552 8.072-4.744 11.256S316.384 480 312 480z"/>
    <path fill="#43d3e8" d="M407.24 168.752c-6.832-71.984-64.016-129.168-136-135.992l1.512-15.928c79.608 7.544 142.864 70.8 150.408 150.408l-15.92 1.512z"/>
    <path fill="#403e3e" d="M280 48h-48V0h48v48zm-32-16h16V16h-16v16zM440 208h-48v-48h48v48zm-32-16h16v-16h-16v16zM120 208H72v-48h48v48zm-32-16h16v-16H88v16z"/>
    <path fill="#403e3e" d="M88 16h152v16H88zM272 16h152v16H272zM325.288 262l-10.576-12.008C333.6 233.376 344 209.936 344 184c0-48.52-39.48-88-88-88s-88 39.48-88 88c0 25.936 10.4 49.376 29.288 66l-10.568 12.008C164.328 242.304 152 214.6 152 184c0-57.344 46.656-104 104-104s104 46.656 104 104c0 30.6-12.328 58.304-34.712 78z"/>
</svg>
