<svg xmlns="http://www.w3.org/2000/svg" viewBox="0 0 512 512">
    <path fill="#403e3e" d="M344 472H88V40h256v16H104v400h240z"/>
    <path fill="#403e3e" d="M328 512H56c-26.912 0-48-21.088-48-48s21.088-48 48-48 48 21.088 48 48H88c0-17.944-14.056-32-32-32s-32 14.056-32 32 14.056 32 32 32h256v-8h16v24z"/>
    <path fill="#403e3e" d="M24 464H8V48C8 21.088 29.088 0 56 0s48 21.088 48 48H88c0-17.944-14.056-32-32-32S24 30.056 24 48v416zM472 80h16v40h-16z"/>
    <path fill="#43d3e8" d="M504 464h-16V152.984L481.752 128h-3.504L472 152.984V464h-16V151.016L465.752 112h28.496L504 152z"/>
    <path fill="#403e3e" d="M456 304h48v16h-48zM480 512c-6.256 0-12.24-2.528-16.848-7.136C458.528 500.24 456 494.256 456 488v-32h48v32c0 6.256-2.528 12.24-7.136 16.848C492.24 509.472 486.256 512 480 512zm-8-40v16c0 2.016.848 3.936 2.464 5.552 3.2 3.184 7.856 3.2 11.096-.016 1.592-1.6 2.44-3.52 2.44-5.536v-16h-16zM456 152h48v16h-48zM456 184h48v16h-48z"/>
    <path fill="#f96232" d="M440 512h-80V0h80v512zm-64-16h48V16h-48v480z"/>
    <path fill="#f96232" d="M392 40h16v16h-16zM368 80h24v16h-24zM368 112h24v16h-24zM368 144h24v16h-24zM368 176h24v16h-24zM368 208h24v16h-24zM368 240h24v16h-24zM368 272h24v16h-24zM368 304h24v16h-24zM368 336h24v16h-24zM368 368h24v16h-24zM368 400h24v16h-24zM368 432h24v16h-24zM368 464h24v16h-24z"/>
    <g>
        <path fill="#403e3e" d="M224 248h16v16h-16z"/>
        <path fill="#403e3e" d="M232.56 323.312L165.248 256l67.32-67.32L299.872 256l-67.312 67.312zM187.872 256l44.688 44.688L277.248 256l-44.688-44.688L187.872 256z"/>
    </g>
    <path fill="#43d3e8" d="M309.656 245.656l-11.312-11.312L316.688 216 232 131.312 147.312 216l18.344 18.344-11.312 11.312L124.688 216 232 108.688 339.312 216z"/>
    <path fill="#f96232" d="M232 403.312L124.688 296l29.656-29.656 11.312 11.312L147.312 296 232 380.688 316.688 296l-18.344-18.344 11.312-11.312L339.312 296z"/>
    <g>
        <path fill="#403e3e" d="M192 424h16v16h-16zM224 424h16v16h-16zM256 424h16v16h-16z"/>
    </g>
</svg>
