<?xml version="1.0" standalone="no"?><!-- Generator: Gravit.io --><svg xmlns="http://www.w3.org/2000/svg" xmlns:xlink="http://www.w3.org/1999/xlink" style="isolation:isolate" viewBox="0 0 350 150" width="350" height="150"><defs><clipPath id="_clipPath_XYdUUTtTJvjbe3yd4V4FI05knZOWSS2l"><rect width="350" height="150"/></clipPath></defs><g clip-path="url(#_clipPath_XYdUUTtTJvjbe3yd4V4FI05knZOWSS2l)"><g id="Logo"><path d=" M 121.13 89.227 L 119.82 90.538 Q 119.558 90.8 119.217 90.8 Q 118.877 90.8 118.615 90.538 L 106.403 78.326 Q 106.141 78.064 106.141 77.723 Q 106.141 77.382 106.403 77.12 L 118.615 64.908 Q 118.877 64.646 119.217 64.646 Q 119.558 64.646 119.82 64.908 L 121.13 66.219 Q 121.393 66.481 121.393 66.821 Q 121.393 67.162 121.13 67.424 L 110.832 77.723 L 121.13 88.022 Q 121.393 88.284 121.393 88.625 Q 121.393 88.965 121.13 89.227 Z  M 136.618 61.266 L 126.843 95.097 Q 126.738 95.438 126.437 95.608 Q 126.136 95.779 125.821 95.674 L 124.197 95.228 Q 123.856 95.124 123.686 94.822 Q 123.515 94.521 123.62 94.18 L 133.395 60.349 Q 133.5 60.008 133.801 59.838 Q 134.102 59.667 134.417 59.772 L 136.042 60.218 Q 136.382 60.322 136.553 60.624 Q 136.723 60.925 136.618 61.266 Z  M 153.835 78.326 L 141.623 90.538 Q 141.361 90.8 141.021 90.8 Q 140.68 90.8 140.418 90.538 L 139.108 89.227 Q 138.846 88.965 138.846 88.625 Q 138.846 88.284 139.108 88.022 L 149.406 77.723 L 139.108 67.424 Q 138.846 67.162 138.846 66.821 Q 138.846 66.481 139.108 66.219 L 140.418 64.908 Q 140.68 64.646 141.021 64.646 Q 141.361 64.646 141.623 64.908 L 153.835 77.12 Q 154.097 77.382 154.097 77.723 Q 154.097 78.064 153.835 78.326 Z " fill="rgb(153,0,255)"/><g id="69d30355e7de3e62abf56715a159fe90 (1)"><path d=" M 66.947 102.149 L 37.154 102.149 C 37.154 96.264 38.333 92.147 43.039 90.387 C 47.746 88.619 54.211 86.27 57.739 83.332 C 61.856 79.805 60.677 79.805 59.703 78.626 C 58.328 77.054 58.132 72.937 58.132 72.937 C 54.015 71.759 54.997 64.9 55.783 64.9 C 56.765 64.9 56.765 64.507 56.176 60.979 C 55.39 56.47 55.783 53.924 57.944 50.986 C 60.105 48.048 66.767 47.851 66.767 47.851 L 66.767 47.851 C 66.767 47.851 73.429 48.244 75.59 50.986 C 77.743 53.924 78.136 56.282 77.358 60.979 C 76.769 64.703 76.769 64.9 77.751 64.9 C 78.734 64.9 79.716 71.759 75.402 72.937 C 75.402 72.937 75.206 77.054 73.831 78.626 C 72.849 79.805 71.678 79.805 75.795 83.332 C 79.323 86.467 85.797 88.824 90.495 90.387 C 95.201 92.155 96.38 96.272 96.38 102.149 L 66.947 102.149 L 66.947 102.149 Z " fill="rgb(153,0,255)"/><path d=" M 98.9 99.005 L 108.705 99.005 C 108.705 94.692 107.919 91.557 104.392 90.379 C 100.864 89.2 96.158 87.44 93.416 85.083 C 90.282 82.538 91.264 82.538 91.845 81.555 C 92.827 80.377 93.023 77.439 93.023 77.439 C 96.158 76.653 95.372 71.554 94.791 71.554 C 94.211 71.554 94.006 71.357 94.595 68.615 C 95.184 65.284 94.988 63.32 93.22 61.364 C 91.648 59.211 86.754 59.023 86.754 59.023 L 86.754 59.023 C 86.754 59.023 81.851 59.22 80.288 61.372 C 79.895 61.765 79.699 62.355 79.306 62.747 C 79.306 62.747 81.262 63.926 81.458 65.686 C 81.655 67.65 81.655 69.41 80.673 71.955 C 79.494 74.5 79.297 76.072 81.458 78.028 C 82.637 79.01 81.851 83.52 81.851 83.52 C 81.851 83.52 87.54 86.458 93.613 88.619 C 99.686 90.78 98.9 99.005 98.9 99.005 Z " fill="rgb(46,46,46)"/><path d=" M 34.805 99.005 L 25 99.005 C 25 94.692 25.786 91.557 29.313 90.379 C 32.841 89.2 37.547 87.44 40.289 85.083 C 43.424 82.538 42.441 82.538 41.861 81.555 C 40.878 80.377 40.682 77.439 40.682 77.439 C 37.547 76.653 38.333 71.554 38.914 71.554 C 39.495 71.554 39.7 71.357 39.11 68.615 C 38.521 65.284 38.717 63.32 40.485 61.364 C 42.057 59.211 46.951 59.023 46.951 59.023 L 46.951 59.023 C 46.951 59.023 51.854 59.22 53.417 61.372 C 53.81 61.765 54.006 62.355 54.399 62.747 C 54.399 62.747 52.435 63.926 52.247 65.686 C 52.05 67.65 52.05 69.41 53.033 71.955 C 54.015 74.5 54.408 76.072 52.247 78.028 C 51.068 79.01 51.854 83.52 51.854 83.52 C 51.854 83.52 46.165 86.458 40.093 88.619 C 34.02 90.78 34.805 99.005 34.805 99.005 Z " fill="rgb(255,153,0)"/></g><g transform="matrix(1.522,0,0,1.522,171.649,56.559)"><text transform="matrix(1,0,0,1,1.035,21.377)" style="font-family:&quot;Open Sans&quot;;font-weight:700;font-size:20px;font-style:italic;fill:#171717;stroke:none;">Directory</text></g></g></g></svg>