<svg xmlns="http://www.w3.org/2000/svg" viewBox="0 0 512 512">
    <path fill="#403e3e" d="M304 400H24c-6.264 0-12.248-2.528-16.848-7.136C2.536 388.248 0 382.256 0 376v-40h304v16H16v24c0 2.016.848 3.936 2.464 5.544 1.6 1.608 3.52 2.456 5.536 2.456h280v16z"/>
    <path fill="#403e3e" d="M16 344H0V72c0-6.264 2.536-12.248 7.144-16.856S17.736 48 24 48h384c6.256 0 12.248 2.536 16.856 7.144C429.472 59.752 432 65.736 432 72v56h-16V72c0-2.016-.848-3.936-2.464-5.544-1.6-1.608-3.52-2.456-5.536-2.456H24c-2.016 0-3.936.848-5.544 2.456S16 69.984 16 72v272z"/>
    <path fill="#43d3e8" d="M304 320H32V80h368v48h-16V96H48v208h256z"/>
    <path fill="#403e3e" d="M264 392h16v64h-16zM152 392h16v64h-16z"/>
    <path fill="#403e3e" d="M128 448h176v16H128z"/>
    <path fill="#f96232" d="M144 256h-16v-80c0-4.288-1.544-7.832-4.856-11.144-6.624-6.624-15.664-6.624-22.288 0C97.544 168.168 96 171.712 96 176v80H80v-80c0-8.568 3.208-16.128 9.544-22.456S103.432 144 112 144s16.128 3.208 22.456 9.544S144 167.432 144 176v80z"/>
    <path fill="#f96232" d="M88 200h48v16H88zM160 144h16v112h-16z"/>
    <path fill="#f96232" d="M192 216h-24v-16h24c4.288 0 7.832-1.544 11.144-4.856S208 188.288 208 184v-8c0-3.04-1.28-7.56-4.856-11.144C199.832 161.544 196.288 160 192 160h-24v-16h24c8.568 0 16.128 3.208 22.456 9.544C220.432 159.512 224 167.912 224 176v8c0 8.568-3.208 16.128-9.544 22.456S200.568 216 192 216zM256 152h16v96h-16z"/>
    <path fill="#f96232" d="M240 144h48v16h-48zM240 240h48v16h-48zM453.656 333.656l-11.312-11.312L460.688 304l-18.344-18.344 11.312-11.312L483.312 304zM378.344 333.656L348.688 304l29.656-29.656 11.312 11.312L371.312 304l18.344 18.344zM431.8877811 257.3208328l-15.9708684 96.0003936-15.7814136-2.6254359 15.9708684-96.0003936z"/>
    <path fill="#403e3e" d="M488 464H344c-6.256 0-12.24-2.528-16.848-7.136C322.528 452.24 320 446.256 320 440V168c0-6.264 2.528-12.248 7.136-16.848C331.752 146.536 337.744 144 344 144h144c6.256 0 12.248 2.536 16.856 7.144C509.472 155.752 512 161.736 512 168v272c0 6.256-2.528 12.24-7.136 16.848C500.24 461.472 494.256 464 488 464zM344 160c-2.016 0-3.936.848-5.544 2.464-1.608 1.6-2.456 3.52-2.456 5.536v272c0 2.016.848 3.936 2.464 5.552 1.6 1.6 3.52 2.448 5.536 2.448h144c2.016 0 3.936-.848 5.552-2.464 1.6-1.6 2.448-3.52 2.448-5.536V168c0-2.016-.848-3.936-2.464-5.544-1.6-1.608-3.52-2.456-5.536-2.456H344z"/>
    <path fill="#403e3e" d="M328 208h176v16H328zM328 384h176v16H328zM392 416h48v16h-48zM408 176h16v16h-16z"/>
</svg>
