<?xml version="1.0" standalone="no"?><!-- Generator: Gravit.io --><svg xmlns="http://www.w3.org/2000/svg" xmlns:xlink="http://www.w3.org/1999/xlink" style="isolation:isolate" viewBox="0 0 800 400" width="800" height="400"><defs><clipPath id="_clipPath_llvxpRhKLxtwsQIUt68yKROscb4Zmd78"><rect width="800" height="400"/></clipPath></defs><g clip-path="url(#_clipPath_llvxpRhKLxtwsQIUt68yKROscb4Zmd78)"><g id="Group"><path d=" M 88.375 144.179 C 88.381 141.014 89.66 138.148 91.724 136.071 C 93.788 133.994 96.637 132.706 99.781 132.7 L 139.585 144.059 L 179.431 132.553 C 182.575 132.548 185.419 133.824 187.476 135.894 C 189.533 137.965 190.802 140.826 190.796 143.989 L 179.362 184.089 L 190.648 224.147 C 190.643 227.31 189.363 230.176 187.299 232.254 C 185.235 234.332 182.387 235.619 179.243 235.626 L 139.438 224.267 L 99.592 235.773 C 96.448 235.779 93.603 234.501 91.547 232.433 C 89.491 230.362 88.221 227.501 88.227 224.336 L 99.661 184.237 L 88.375 144.179 L 88.375 144.179 Z " fill="rgb(74,210,240)"/><path d=" M 167.799 46.786 C 169.258 43.004 172.106 40.163 175.528 38.626 C 178.951 37.088 182.951 36.856 186.715 38.294 L 229.112 70.159 L 282.06 74.693 C 285.824 76.129 288.639 78.964 290.149 82.384 C 291.659 85.804 291.863 89.81 290.403 93.593 L 258.313 136.311 L 253.421 189.411 C 251.961 193.193 249.114 196.035 245.691 197.572 C 242.268 199.109 238.27 199.342 234.505 197.905 L 192.107 166.039 L 139.159 161.505 C 135.396 160.068 132.579 157.234 131.071 153.814 C 129.561 150.394 129.358 146.387 130.818 142.604 L 162.907 99.888 L 167.799 46.786 L 167.799 46.786 Z " fill="rgb(208,244,0)"/><path d=" M 170.509 260.841 C 169.851 259.118 169.949 257.289 170.638 255.728 C 171.327 254.166 172.609 252.87 174.32 252.209 L 198.363 250.076 L 217.65 235.485 C 219.36 234.824 221.175 234.926 222.728 235.623 C 224.28 236.32 225.568 237.613 226.227 239.336 L 228.382 263.555 L 242.898 283.003 C 243.556 284.726 243.458 286.553 242.769 288.116 C 242.08 289.679 240.798 290.975 239.088 291.636 L 215.046 293.77 L 195.758 308.36 C 194.048 309.02 192.232 308.919 190.681 308.222 C 189.129 307.525 187.84 306.232 187.182 304.509 L 185.026 280.291 L 170.509 260.841 L 170.509 260.841 Z " fill="rgb(51,148,206)"/><path d=" M 131.464 141.742 L 139.585 144.059 L 179.431 132.553 C 182.575 132.548 185.419 133.824 187.476 135.894 C 189.533 137.965 190.802 140.826 190.796 143.989 L 184.691 165.401 L 139.159 161.502 C 135.396 160.066 132.579 157.231 131.071 153.811 C 129.561 150.391 129.358 146.385 130.818 142.602 C 130.816 142.604 131.464 141.742 131.464 141.742 L 131.464 141.742 Z " fill="rgb(107,179,64)"/><path d=" M 320.755 191.146 L 320.646 214.418 L 350.793 214.418 C 356.037 214.418 360.288 218.669 360.288 223.913 C 360.288 229.157 356.037 233.408 350.793 233.408 L 320.646 233.408 L 320.646 352.116 C 320.646 357.943 315.922 362.666 310.096 362.666 C 304.27 362.666 299.546 357.942 299.546 352.116 L 299.546 233.408 L 281.265 233.408 C 276.021 233.408 271.77 229.157 271.77 223.913 C 271.77 218.669 276.021 214.418 281.265 214.418 L 299.285 214.418 L 299.285 193.625 C 299.285 168.042 315.371 155.121 339.637 155.121 L 350.794 155.121 C 356.038 155.121 360.289 159.373 360.289 164.617 C 360.289 169.86 356.038 174.112 350.794 174.112 L 339.637 174.112 C 325.305 174.113 320.755 179.258 320.755 191.146 L 320.755 191.146 Z  M 543.843 191.146 L 543.734 214.418 L 573.881 214.418 C 579.124 214.418 583.376 218.669 583.376 223.913 C 583.376 229.157 579.124 233.408 573.881 233.408 L 543.734 233.408 L 543.734 352.116 C 543.734 357.943 539.01 362.666 533.184 362.666 C 527.358 362.666 522.634 357.942 522.634 352.116 L 522.634 233.408 L 504.352 233.408 C 499.108 233.408 494.857 229.157 494.857 223.913 C 494.857 218.669 499.108 214.418 504.352 214.418 L 522.372 214.418 L 522.372 193.625 C 522.372 168.042 538.457 155.121 562.724 155.121 L 573.881 155.121 C 579.124 155.121 583.376 159.373 583.376 164.617 C 583.376 169.86 579.124 174.112 573.881 174.112 L 562.724 174.112 C 548.394 174.113 543.843 179.258 543.843 191.146 L 543.843 191.146 Z  M 605.24 276.259 L 691.605 276.259 C 688.034 247.251 671.654 234.683 651.322 234.683 C 625.96 234.683 609.447 250.466 605.24 276.259 Z  M 651.697 342.668 C 674.584 342.668 684.411 330.501 688.13 325.702 C 688.13 325.702 692.693 319.731 695.228 318.984 C 697.542 318.313 700.109 318.507 702.404 319.728 C 706.57 321.943 708.435 326.79 707.041 331.129 C 706.437 333.443 705.233 336.37 703.234 339.549 C 696.376 349.918 681.144 362.528 651.321 362.528 C 610.563 362.528 584.451 336.304 584.451 291.142 C 584.451 251.995 605.033 214.952 651.321 214.952 C 686.415 214.952 709.014 239.677 711.773 279.641 C 711.773 294.67 705.519 295.25 688.638 295.25 L 604.322 295.25 C 606.251 337.987 635.856 342.668 651.697 342.668 L 651.697 342.668 Z  M 372.068 257.2 C 372.068 234.047 392.643 215.792 425.718 215.792 L 426.51 215.795 C 454.957 215.786 469.413 228.233 475.92 238.468 C 477.817 241.605 478.961 244.495 479.534 246.779 C 480.857 251.062 479.086 255.846 475.133 258.033 C 472.954 259.238 470.517 259.43 468.322 258.768 C 465.916 258.031 461.586 252.137 461.586 252.137 C 459.033 248.713 453.447 241.484 442.346 237.742 C 437.539 236.217 432.127 235.4 425.718 235.4 C 405.142 235.4 392.901 243.814 392.901 256.679 C 392.901 265.898 399.414 273.345 410.613 275.689 L 446.027 283.239 C 465.301 287.407 482.229 297.37 482.229 320.223 C 482.229 344.461 461.136 362.511 426.759 362.511 L 425.257 362.525 C 395.434 362.525 380.201 349.915 373.344 339.546 C 371.345 336.368 370.139 333.44 369.537 331.126 C 368.143 326.787 370.008 321.941 374.174 319.726 C 376.469 318.506 379.037 318.311 381.351 318.981 C 383.886 319.728 388.449 325.699 388.449 325.699 C 391.156 329.191 397.1 336.587 408.955 340.353 C 414.183 342.013 420.137 342.876 426.759 342.876 C 449.676 342.876 461.136 333.737 461.136 321.001 C 461.136 312.279 454.623 304.855 443.945 302.511 L 407.486 294.961 C 388.212 291.053 372.068 279.487 372.068 257.2 L 372.068 257.2 Z " fill="rgb(32,45,121)"/></g></g></svg>