<svg xmlns="http://www.w3.org/2000/svg" style="isolation:isolate" viewBox="0 0 800 800">
    <defs>
        <clipPath id="a">
            <path d="M0 0h800v800H0z"/>
        </clipPath>
    </defs>
    <g clip-path="url(#a)">
        <path fill="none" d="M360.997 102.737h91.732v91.367h-91.732v-91.367z"/>
        <path fill="rgb(249,173,12)" fill-rule="evenodd" d="M406.772 102.737c-25.35 0-45.593 20.425-45.593 45.593 0 25.349 20.243 45.592 45.593 45.592 25.167 0 45.775-20.243 45.775-45.592 0-25.168-20.608-45.593-45.775-45.593zm0 9.848c19.696 0 35.927 16.049 35.927 35.745 0 19.878-16.231 35.926-35.927 35.926-19.878 0-35.927-16.048-35.927-35.926 0-19.696 16.049-35.745 35.927-35.745zm0 10.03c-14.407 0-25.897 11.49-25.897 25.715 0 14.407 11.49 25.896 25.897 25.896 14.225 0 25.714-11.489 25.714-25.896 0-14.225-11.489-25.715-25.714-25.715z"/>
        <path fill="none" d="M321.24 162.19h91.732v89.179H321.24V162.19z"/>
        <path fill="rgb(249,173,12)" fill-rule="evenodd" d="M352.973 162.19c-18.42 5.835-31.55 22.978-31.55 43.404 0 25.349 20.243 45.592 45.775 45.592 25.167 0 45.592-20.243 45.592-45.592 0-.547 0-1.277-.182-1.824-1.824.182-3.83.365-5.654.365-1.459 0-2.735-.183-4.012-.183v1.642c0 19.878-16.048 35.927-35.744 35.927-20.061 0-36.11-16.049-36.11-35.927 0-16.049 10.578-29.727 25.167-34.286-1.276-2.918-2.37-6.018-3.282-9.118zm8.571 18.054c-11.854 2.553-20.425 12.949-20.425 25.35 0 14.407 11.489 25.896 26.079 25.896 14.224 0 25.714-11.489 25.714-25.896 0-1.095 0-2.189-.183-3.465-12.766-3.283-23.89-11.307-31.185-21.885z"/>
        <path fill="none" d="M344.584 266.688h91.367v66.2h-91.367v-66.2z"/>
        <path fill="rgb(249,173,12)" fill-rule="evenodd" d="M390.176 266.688c-25.167 0-45.592 20.607-45.592 45.774 0 7.295 1.641 14.225 4.559 20.244l9.848-2.736c-2.918-5.289-4.559-11.125-4.559-17.508 0-19.878 16.048-35.926 35.744-35.926 19.879 0 35.927 16.048 35.927 35.926 0 6.383-1.641 12.219-4.559 17.508l9.665 2.736c2.918-6.019 4.56-12.949 4.56-20.244 0-25.167-20.243-45.774-45.593-45.774zm0 19.878c-14.225 0-25.714 11.489-25.714 25.896 0 5.472 1.641 10.396 4.377 14.59l21.52-6.201 21.337 6.201c2.735-4.194 4.377-9.118 4.377-14.59 0-14.407-11.49-25.896-25.897-25.896z"/>
        <path fill="none" d="M164.22 627.415h452.095v14.407H164.22v-14.407z"/>
        <path fill="rgb(32,146,197)" fill-rule="evenodd" d="M616.133 627.415H164.22v14.043h451.913v-14.043z"/>
        <path fill="none" d="M131.94 655.135h516.654v14.225H131.94v-14.225z"/>
        <path fill="rgb(32,146,197)" fill-rule="evenodd" d="M648.412 655.135H131.94v14.043h516.472v-14.043z"/>
        <path fill="none" d="M164.22 407.112h452.095v14.225H164.22v-14.225z"/>
        <path fill="rgb(32,146,197)" fill-rule="evenodd" d="M616.133 407.112H164.22v14.043h451.913v-14.043z"/>
        <path fill="none" d="M181.363 447.051h43.039v64.377h-43.039v-64.377z"/>
        <path fill="rgb(32,146,197)" fill-rule="evenodd" d="M181.363 497.203h13.677v-33.009h-12.036v-10.577c3.647-.73 6.748-1.824 9.301-2.736 2.553-.912 4.924-2.188 7.477-3.83h12.766v50.152h11.489v13.86h-42.674v-13.86z"/>
        <path fill="none" d="M256.864 447.051h43.039v64.377h-43.039v-64.377z"/>
        <path fill="rgb(32,146,197)" fill-rule="evenodd" d="M256.864 497.203h13.678v-33.009h-12.037v-10.577c3.648-.73 6.748-1.824 9.119-2.736 2.553-.912 5.106-2.188 7.477-3.83h12.766v50.152h11.671v13.86h-42.674v-13.86z"/>
        <path fill="none" d="M332.183 447.051h43.039v64.377h-43.039v-64.377z"/>
        <path fill="rgb(32,146,197)" fill-rule="evenodd" d="M332.183 497.203h13.86v-33.009h-12.219v-10.577c3.647-.73 6.93-1.824 9.483-2.736 2.553-.912 5.107-2.188 7.477-3.83h12.584v50.152h11.489v13.86h-42.674v-13.86z"/>
        <path fill="none" d="M404.401 445.957h47.963v66.748h-47.963v-66.748z"/>
        <path fill="rgb(32,146,197)" fill-rule="evenodd" d="M428.292 512.34c-3.648 0-6.931-.73-9.666-2.189-2.918-1.459-5.471-3.647-7.66-6.383-2.006-2.917-3.647-6.382-4.741-10.577-1.094-4.012-1.824-8.936-1.824-14.225 0-5.471.73-10.395 1.824-14.589 1.094-4.195 2.735-7.478 4.741-10.213 2.189-2.736 4.742-4.742 7.66-6.201 2.735-1.276 6.018-2.006 9.666-2.006 3.465 0 6.565.73 9.483 2.006 2.918 1.459 5.471 3.465 7.659 6.201 2.189 2.735 3.83 6.2 4.924 10.213 1.277 4.194 1.824 9.118 1.824 14.589 0 5.289-.547 10.213-1.824 14.225-1.094 4.195-2.735 7.66-4.924 10.577-2.188 2.736-4.741 4.924-7.659 6.383-2.918 1.459-6.018 2.189-9.483 2.189zm0-13.313c.911 0 1.823-.183 2.735-.73.912-.547 1.824-1.459 2.371-3.1.729-1.459 1.276-3.465 1.641-6.018.365-2.736.547-6.018.547-10.213 0-4.377-.182-7.659-.547-10.395-.365-2.553-.912-4.559-1.641-6.018-.547-1.277-1.459-2.189-2.371-2.736-.912-.364-1.824-.547-2.735-.547-1.095 0-2.007.183-2.918.547-.912.547-1.642 1.459-2.371 2.736-.73 1.459-1.277 3.465-1.642 6.018-.364 2.736-.547 6.018-.547 10.395 0 4.195.183 7.477.547 10.213.365 2.553.912 4.559 1.642 6.018.729 1.641 1.459 2.553 2.371 3.1.911.547 1.823.73 2.918.73z"/>
        <path fill="none" d="M483.185 447.051h42.674v64.377h-42.674v-64.377z"/>
        <path fill="rgb(32,146,197)" fill-rule="evenodd" d="M483.185 497.203h13.678v-33.009h-12.219v-10.577c3.647-.73 6.748-1.824 9.301-2.736 2.553-.912 5.106-2.188 7.477-3.83h12.948v50.152h11.307v13.86h-42.492v-13.86z"/>
        <path fill="none" d="M558.504 447.051h43.039v64.377h-43.039v-64.377z"/>
        <path fill="rgb(32,146,197)" fill-rule="evenodd" d="M558.504 497.203h13.677v-33.009h-12.036v-10.577c3.647-.73 6.748-1.824 9.301-2.736 2.553-.912 4.924-2.188 7.477-3.83h12.584v50.152h11.671v13.86h-42.674v-13.86z"/>
        <path fill="none" d="M178.262 536.413h47.781v66.565h-47.781v-66.565z"/>
        <path fill="rgb(32,146,197)" fill-rule="evenodd" d="M201.97 602.795c-3.647 0-6.747-.912-9.665-2.37-2.918-1.459-5.471-3.466-7.477-6.383-2.189-2.736-3.83-6.201-4.924-10.396-1.095-4.194-1.642-8.936-1.642-14.407s.547-10.212 1.642-14.225c1.094-4.194 2.735-7.659 4.924-10.395 2.006-2.735 4.559-4.741 7.477-6.018 2.918-1.459 6.018-2.188 9.665-2.188 3.466 0 6.748.729 9.666 2.188 2.918 1.277 5.471 3.283 7.66 6.018 2.006 2.736 3.647 6.201 4.924 10.395 1.094 4.013 1.641 8.754 1.641 14.225s-.547 10.213-1.641 14.407c-1.277 4.195-2.918 7.66-4.924 10.396-2.189 2.917-4.742 4.924-7.66 6.383-2.918 1.458-6.2 2.37-9.666 2.37zm0-13.495c.912 0 1.824-.182 2.736-.73.912-.547 1.824-1.458 2.553-2.917.73-1.459 1.277-3.648 1.642-6.201.547-2.553.729-6.018.729-10.213 0-4.194-.182-7.659-.729-10.212-.365-2.554-.912-4.56-1.642-5.836-.729-1.459-1.641-2.371-2.553-2.736-.912-.547-1.824-.729-2.736-.729-1.094 0-2.006.182-2.917.729-.912.365-1.642 1.277-2.371 2.736-.73 1.276-1.094 3.282-1.642 5.836-.364 2.553-.547 6.018-.547 10.212 0 4.195.183 7.66.547 10.213.548 2.553.912 4.742 1.642 6.201.729 1.459 1.459 2.37 2.371 2.917.911.548 1.823.73 2.917.73z"/>
        <path fill="none" d="M256.864 537.689h43.039v64.012h-43.039v-64.012z"/>
        <path fill="rgb(32,146,197)" fill-rule="evenodd" d="M256.864 587.659h13.678v-33.192h-12.037V543.89c3.648-.73 6.748-1.641 9.119-2.553 2.553-.912 5.106-2.189 7.477-3.648h12.766v49.97h11.671v13.86h-42.674v-13.86z"/>
        <path fill="none" d="M328.9 536.413h47.963v66.565H328.9v-66.565z"/>
        <path fill="rgb(32,146,197)" fill-rule="evenodd" d="M352.973 602.795c-3.648 0-6.93-.912-9.848-2.37-2.918-1.459-5.471-3.466-7.477-6.383-2.189-2.736-3.83-6.201-4.924-10.396-1.095-4.194-1.642-8.936-1.642-14.407s.547-10.212 1.642-14.225c1.094-4.194 2.735-7.659 4.924-10.395 2.006-2.735 4.559-4.741 7.477-6.018 2.918-1.459 6.2-2.188 9.848-2.188 3.465 0 6.747.729 9.483 2.188 3.1 1.277 5.471 3.283 7.66 6.018 2.188 2.736 3.829 6.201 4.924 10.395 1.094 4.013 1.641 8.754 1.641 14.225s-.547 10.213-1.641 14.407c-1.095 4.195-2.736 7.66-4.924 10.396-2.189 2.917-4.56 4.924-7.66 6.383-2.736 1.458-6.018 2.37-9.483 2.37zm0-13.495c1.094 0 2.006-.182 2.735-.73 1.095-.547 1.824-1.458 2.553-2.917.548-1.459 1.095-3.648 1.459-6.201.548-2.553.73-6.018.73-10.213 0-4.194-.182-7.659-.73-10.212-.364-2.554-.911-4.56-1.459-5.836-.729-1.459-1.458-2.371-2.553-2.736-.729-.547-1.641-.729-2.735-.729-1.094 0-2.006.182-3.101.729-.911.365-1.641 1.277-2.37 2.736-.547 1.276-1.095 3.282-1.642 5.836-.364 2.553-.547 6.018-.547 10.212 0 4.195.183 7.66.547 10.213.547 2.553 1.095 4.742 1.642 6.201.729 1.459 1.459 2.37 2.37 2.917 1.095.548 2.007.73 3.101.73z"/>
        <path fill="none" d="M407.684 537.689h43.039v64.012h-43.039v-64.012z"/>
        <path fill="rgb(32,146,197)" fill-rule="evenodd" d="M407.684 587.659h13.677v-33.192h-12.036V543.89c3.647-.73 6.748-1.641 9.301-2.553 2.553-.912 5.106-2.189 7.477-3.648h12.766v49.97h11.489v13.86h-42.674v-13.86z"/>
        <path fill="none" d="M483.185 537.689h42.674v64.012h-42.674v-64.012z"/>
        <path fill="rgb(32,146,197)" fill-rule="evenodd" d="M483.185 587.659h13.678v-33.192h-12.219V543.89c3.647-.73 6.748-1.641 9.301-2.553 2.553-.912 5.106-2.189 7.477-3.648h12.948v49.97h11.307v13.86h-42.492v-13.86z"/>
        <path fill="none" d="M555.221 536.413h47.963v66.565h-47.963v-66.565z"/>
        <path fill="rgb(32,146,197)" fill-rule="evenodd" d="M579.111 602.795c-3.647 0-6.747-.912-9.665-2.37-2.918-1.459-5.471-3.466-7.66-6.383-2.006-2.736-3.647-6.201-4.741-10.396-1.095-4.194-1.642-8.936-1.642-14.407s.547-10.212 1.642-14.225c1.094-4.194 2.735-7.659 4.741-10.395 2.189-2.735 4.742-4.741 7.66-6.018 2.918-1.459 6.018-2.188 9.665-2.188 3.465 0 6.566.729 9.666 2.188 2.918 1.277 5.471 3.283 7.477 6.018 2.189 2.736 3.83 6.201 5.107 10.395 1.094 4.013 1.641 8.754 1.641 14.225s-.547 10.213-1.641 14.407c-1.277 4.195-2.918 7.66-5.107 10.396-2.006 2.917-4.559 4.924-7.477 6.383-3.1 1.458-6.201 2.37-9.666 2.37zm0-13.495c.912 0 1.824-.182 2.736-.73.912-.547 1.824-1.458 2.371-2.917.729-1.459 1.276-3.648 1.641-6.201.365-2.553.73-6.018.73-10.213 0-4.194-.365-7.659-.73-10.212-.365-2.554-.912-4.56-1.641-5.836-.547-1.459-1.459-2.371-2.371-2.736-.912-.547-1.824-.729-2.736-.729-1.094 0-2.006.182-2.917.729-.912.365-1.642 1.277-2.371 2.736-.73 1.276-1.277 3.282-1.642 5.836-.364 2.553-.547 6.018-.547 10.212 0 4.195.183 7.66.547 10.213.365 2.553.912 4.742 1.642 6.201.729 1.459 1.459 2.37 2.371 2.917.911.548 1.823.73 2.917.73z"/>
        <g>
            <path fill="none" d="M461.483 181.338h256.959v426.928H461.483V181.338z"/>
            <path fill="rgb(32,146,197)" fill-rule="evenodd" d="M475.89 181.338c-7.477 0-13.495 6.201-14.225 12.584-.912 6.201 3.283 13.86 10.395 15.866 161.58 46.505 251.671 218.115 205.166 379.694h.183c-1.277 3.83-.73 8.389 1.276 11.672 2.189 3.283 5.107 5.289 8.389 6.201 3.283.911 6.93.911 10.396-.73 3.465-1.641 6.382-5.289 7.477-9.301 50.881-176.351-48.146-364.375-224.862-415.438-1.459-.365-2.736-.548-4.195-.548z"/>
        </g>
        <g>
            <path fill="none" d="M651.33 552.097h95.562v96.473H651.33v-96.473z"/>
            <path fill="rgb(32,146,197)" fill-rule="evenodd" d="M746.709 579.634l-95.379-27.537 24.073 96.291 19.149-18.602 52.157-50.152z"/>
        </g>
        <g>
            <path fill="none" d="M53.157 197.205h213.555v452.459H53.157V197.205z"/>
            <path fill="rgb(32,146,197)" fill-rule="evenodd" d="M251.028 197.205c-1.824.182-3.465.729-5.106 1.459C79.236 276.171 6.835 474.225 83.977 640.728c1.641 3.648 5.107 6.748 8.936 8.025 3.648 1.094 7.295.547 10.395-.912 2.918-1.277 5.654-3.83 7.295-7.477 1.459-3.465 1.277-8.025-.547-11.855l.182.183c-70.759-152.461-4.741-333.008 147.902-403.767h-.182c6.565-2.918 9.666-10.76 8.024-16.596-1.459-6.018-7.842-11.671-14.954-11.124z"/>
        </g>
        <g>
            <path fill="none" d="M204.888 178.785h99.027v90.273h-99.027v-90.273z"/>
            <path fill="rgb(32,146,197)" fill-rule="evenodd" d="M276.742 185.168l-71.854-6.383 41.763 90.091 57.082-81.337-26.991-2.371z"/>
        </g>
        <g>
            <path fill="none" d="M99.843 682.856h580.848v14.407H99.843v-14.407z"/>
            <path fill="rgb(32,146,197)" fill-rule="evenodd" d="M680.509 682.856H99.843v14.042h580.666v-14.042z"/>
        </g>
        <g>
            <path fill="none" d="M162.214 313.921h455.925v79.696H162.214v-79.696z"/>
            <path fill="rgb(32,146,197)" fill-rule="evenodd" d="M388.17 313.921l-225.774 66.018 1.824 13.496h451.913l1.823-13.496L392 313.921h-3.83zm2.006 13.861l177.446 51.975H212.73l177.446-51.975z"/>
        </g>
    </g>
</svg>
